<svg width="76" height="76" viewBox="0 0 76 76" fill="none" xmlns="http://www.w3.org/2000/svg">
<rect width="76" height="76" rx="38" fill="#FFBD02" fill-opacity="0.15"/>
<g clip-path="url(#clip0_94_38115)">
<path d="M58.2915 25.7335C57.1431 25.0873 55.7753 25.3682 55.0464 26.0841C50.3444 30.704 50.3724 30.7689 49.8107 30.9772C49.1125 31.2362 48.3909 31.0933 47.8171 30.6315C39.1727 23.3684 39.7265 23.8297 39.6498 23.7764C38.4664 22.9563 36.9772 23.1933 36.1809 23.9579C27.6973 32.0973 28.1772 31.6809 27.8311 31.8665C26.854 32.3902 25.8726 32.0442 25.1649 31.2284C20.7411 26.129 21.0677 26.4965 20.967 26.4093C18.7964 24.5308 15.6758 26.5338 16.0273 29.6229C16.9881 39.2769 17.639 45.8182 17.6399 45.8268C17.9512 48.9552 17.8504 47.98 17.8737 48.1744C18.17 50.7106 20.025 52.7374 22.383 52.7374H53.5802C56.0092 52.7374 57.8523 50.5765 58.0918 48.1527L59.9734 29.3026C60.144 27.8052 59.4847 26.4051 58.2915 25.7335ZM18.9826 28.2961C19.0511 28.26 19.1145 28.2385 19.2252 28.3158L23.2174 32.9178C25.2098 35.2145 28.2117 35.1916 30.0757 33.3882L37.8999 25.8814C37.9858 25.828 38.0615 25.8258 38.1469 25.8738C46.5878 32.966 46.1695 32.6147 46.1866 32.6286C47.4641 33.6622 49.1345 33.9774 50.7069 33.3945C51.9224 32.9438 52.084 32.609 56.7869 27.9883C56.8861 27.924 56.9467 27.935 57.0268 27.9801C57.2553 28.1087 57.4729 28.4874 57.4113 29.0152C57.4092 29.0336 57.4656 28.469 55.8753 44.4016H20.0888C18.5765 29.2055 18.5912 29.3517 18.5893 29.3359C18.5222 28.7614 18.7878 28.3993 18.9826 28.2961ZM53.5802 50.1593H22.383C21.4267 50.1593 20.5908 49.1826 20.4355 47.8855L20.3453 46.9797H55.6179L55.5275 47.8852C55.3723 49.1824 54.5365 50.1593 53.5802 50.1593Z" fill="#FFBD02"/>
</g>
<defs>
<clipPath id="clip0_94_38115">
<rect width="44" height="44" fill="white" transform="translate(16 16)"/>
</clipPath>
</defs>
</svg>
