<svg width="423" height="286" viewBox="0 0 423 286" fill="none" xmlns="http://www.w3.org/2000/svg">
<g clip-path="url(#clip0_35_39544)">
<rect width="423" height="286" rx="4" fill="#EAEEFF"/>
<path d="M125.907 207.406C101.052 198.618 72.4033 201.273 49.5884 214.479C61.2231 224.473 76.2723 230.415 91.596 231.066C106.92 231.718 122.421 227.072 134.859 218.101L125.907 207.403V207.406Z" fill="#68DBF2"/>
<path d="M140.834 216.596C138.181 208.276 134.47 200.305 129.864 192.889C125.258 185.472 119.768 178.599 113.59 172.43C107.404 166.252 100.514 160.77 93.1086 156.128C85.7115 151.491 77.7822 147.697 69.5149 144.889C65.377 143.484 61.1505 142.331 56.8713 141.447C52.8194 140.61 48.5956 139.79 44.4439 139.828C40.8603 139.862 36.6809 140.532 34.1007 143.265C32.7232 144.726 31.9832 146.699 32.0331 148.706C32.0941 151.264 33.2942 153.658 34.6855 155.748C36.0518 157.802 37.6593 159.706 39.2362 161.599C40.7717 163.444 42.3486 165.254 43.9644 167.028C47.196 170.575 50.5855 173.982 54.1164 177.233C61.1366 183.698 68.7139 189.566 76.7235 194.754C84.783 199.975 93.286 204.51 102.113 208.287C110.918 212.056 120.039 215.08 129.365 217.272C131.638 217.807 133.924 218.29 136.219 218.727C136.835 218.844 137.101 217.899 136.48 217.782C127.237 216.025 118.155 213.464 109.352 210.15C100.528 206.827 91.9889 202.747 83.849 197.988C75.7341 193.246 68.0127 187.831 60.804 181.803C53.6148 175.789 46.9299 169.173 40.8687 162.023C39.2944 160.166 37.7147 158.289 36.2791 156.322C34.7797 154.262 33.3163 151.898 33.0503 149.307C32.8369 147.228 33.5297 145.164 35.0402 143.706C36.3234 142.467 38.0279 141.763 39.7379 141.344C43.654 140.386 47.7087 140.879 51.6359 141.489C55.8708 142.148 60.0613 143.071 64.1825 144.246C72.4111 146.591 80.3459 149.931 87.8067 154.116C95.2842 158.309 102.285 163.339 108.648 169.082C115.028 174.838 120.776 181.304 125.701 188.346C130.618 195.378 134.731 202.983 137.827 210.987C138.575 212.918 139.26 214.875 139.891 216.848C140.083 217.447 141.028 217.192 140.837 216.588L140.834 216.596Z" fill="#33296E"/>
<path d="M34.6497 145.014C42.0995 148.099 49.3802 151.588 56.4947 155.377C63.8807 159.312 71.0921 163.577 78.1207 168.12C85.2545 172.729 92.1999 177.623 98.9457 182.781C105.639 187.903 112.13 193.291 118.379 198.944C124.377 204.371 130.158 210.044 135.638 215.997C136.292 216.71 136.943 217.425 137.589 218.143C138.01 218.614 138.703 217.918 138.282 217.45C132.86 211.422 127.132 205.671 121.173 200.172C114.993 194.471 108.566 189.036 101.936 183.865C95.2069 178.616 88.2754 173.63 81.1499 168.929C74.1131 164.287 66.8933 159.922 59.4934 155.881C52.3374 151.973 45.0124 148.37 37.5155 145.164C36.648 144.792 35.7805 144.426 34.9103 144.066C34.3282 143.825 34.0733 144.773 34.6497 145.011V145.014Z" fill="#33296E"/>
<path d="M107.742 188.601C99.0621 187.612 90.2876 187.859 81.7901 189.995C79.3041 190.619 76.8597 191.395 74.4568 192.29C73.872 192.509 74.1242 193.457 74.7173 193.235C82.8821 190.198 91.4654 188.787 100.173 189.028C102.704 189.097 105.229 189.294 107.742 189.582C108.369 189.654 108.363 188.673 107.742 188.601Z" fill="#33296E"/>
<path d="M100.066 182.263C91.0611 180.913 81.9263 181.204 73.0852 183.446C70.5105 184.1 67.9773 184.907 65.4885 185.83C64.9037 186.049 65.1559 186.997 65.749 186.775C74.1605 183.649 83.0293 182.086 92.0117 182.454C94.6225 182.562 97.2221 182.82 99.8052 183.208C100.423 183.3 100.689 182.357 100.066 182.263Z" fill="#33296E"/>
<path d="M80.7506 168.727C77.095 162.125 74.6006 154.493 74.1821 146.932C74.1461 146.306 73.1678 146.3 73.201 146.932C73.6278 154.67 76.161 162.464 79.9025 169.223C80.2074 169.775 81.0554 169.281 80.7478 168.73L80.7506 168.727Z" fill="#33296E"/>
<path d="M52.5395 245.445C52.3566 245.409 52.1764 245.375 51.9935 245.339C51.5722 245.259 51.1011 245.262 50.7242 245.506C50.6133 245.592 50.5024 245.677 50.3916 245.763C50.2308 245.913 50.1172 246.09 50.0507 246.293C49.9759 246.42 49.9398 246.559 49.9371 246.708C49.8872 246.927 49.8983 247.146 49.9675 247.365C50.1006 247.778 50.35 248.119 50.7242 248.349C50.8794 248.446 51.0346 248.54 51.1925 248.637C51.5972 248.887 52.0877 248.917 52.5395 248.815C52.836 248.732 53.0938 248.582 53.31 248.366C53.479 248.208 53.601 248.019 53.6703 247.803C53.7783 247.595 53.831 247.371 53.8199 247.13C53.8282 246.889 53.7783 246.664 53.6703 246.456C53.601 246.24 53.479 246.052 53.31 245.894C53.091 245.677 52.836 245.528 52.5395 245.445Z" fill="#33296E"/>
<path d="M24.1568 179.924C24.6557 179.943 25.1213 179.838 25.5509 179.611C25.9998 179.464 26.3879 179.214 26.7177 178.862C27.0696 178.535 27.3191 178.145 27.466 177.696C27.6932 177.263 27.7958 176.798 27.7791 176.302C27.7348 175.98 27.6932 175.659 27.6489 175.34C27.4771 174.727 27.1666 174.192 26.7177 173.741C26.4738 173.552 26.2299 173.364 25.986 173.175C25.4206 172.848 24.8109 172.682 24.1568 172.682C23.6579 172.663 23.1923 172.768 22.7627 172.995C22.3138 173.142 21.9257 173.391 21.5959 173.743C21.244 174.07 20.9945 174.461 20.8476 174.91C20.6204 175.343 20.5178 175.808 20.5345 176.304C20.5788 176.626 20.6204 176.947 20.6647 177.266C20.8365 177.879 21.147 178.413 21.5959 178.865L22.3276 179.431C22.893 179.758 23.5027 179.924 24.1568 179.924Z" fill="#33296E"/>
<path d="M58.4684 96.6486C60.6912 96.6486 60.694 93.1953 58.4684 93.1953C56.2429 93.1953 56.2429 96.6486 58.4684 96.6486Z" fill="#33296E"/>
<path d="M113.202 91.1944C117.104 91.1944 117.11 85.1304 113.202 85.1304C109.294 85.1304 109.294 91.1944 113.202 91.1944Z" fill="#33296E"/>
<path d="M126.118 182.401C117.349 184.954 107.51 181.473 102.496 173.801C100.099 170.132 98.81 165.745 98.9458 161.357C99.0955 156.54 100.983 151.984 102.316 147.414C103.563 143.146 104.444 138.506 102.804 134.213C101.274 130.214 97.9702 127.376 94.8218 124.649C93.1922 123.238 91.5625 121.814 90.1352 120.192C88.6247 118.471 87.3415 116.559 86.2939 114.525C84.2292 110.52 83.1039 106.016 83.0762 101.51C83.018 92.724 87.3637 84.1379 94.3534 78.8388C95.1932 78.2013 96.069 77.6166 96.9753 77.0789C96.8117 76.7962 96.6455 76.5135 96.4819 76.2336C93.5885 78.1736 92.1806 81.4662 92.0475 84.8751C91.9062 88.5085 93.1229 92.0699 95.3124 94.9523C100.603 101.928 109.306 104.808 115.711 110.5C118.978 113.405 121.525 117.013 122.19 121.415C122.919 126.231 121.586 131.09 120.608 135.771C119.724 140.011 119.161 144.216 119.799 148.531C120.356 152.3 121.686 155.95 123.584 159.245C127.395 165.853 133.584 171.177 140.903 173.472C141.821 173.76 142.749 173.993 143.692 174.184C144.307 174.309 144.57 173.363 143.952 173.239C136.511 171.745 129.987 167.05 125.732 160.82C123.612 157.713 122.038 154.237 121.182 150.568C120.248 146.569 120.342 142.558 121.06 138.534C121.883 133.931 123.271 129.371 123.36 124.665C123.443 120.336 122.121 116.329 119.416 112.945C114.106 106.302 105.75 103.43 99.4724 97.9399C96.5485 95.3846 94.1594 92.2695 93.3335 88.4115C92.6406 85.1661 92.9871 81.3969 95.1433 78.7418C95.6671 78.096 96.2852 77.539 96.9753 77.0761C97.4935 76.7269 97.0279 75.9038 96.4819 76.2308C88.9047 80.7456 83.5501 88.7552 82.3584 97.5048C81.1168 106.623 84.437 116.121 91.0193 122.534C94.1788 125.613 98.0257 128.146 100.495 131.869C101.762 133.778 102.529 135.948 102.696 138.237C102.867 140.582 102.482 142.919 101.911 145.186C100.714 149.953 98.7185 154.523 98.1171 159.434C97.5739 163.854 98.4719 168.391 100.512 172.338C102.593 176.365 105.886 179.702 109.932 181.756C113.951 183.795 118.585 184.616 123.058 184.039C124.183 183.895 125.292 183.662 126.381 183.346C126.985 183.172 126.727 182.224 126.12 182.401H126.118Z" fill="#68DBF2"/>
<path d="M249.944 87.2804C243.04 86.9894 235.117 87.1169 230.61 92.355C228.055 95.3233 227.148 99.4223 224.676 102.457C221.087 106.861 215.054 108.169 209.624 109.846C204.198 111.52 198.3 114.571 197.031 120.106C195.501 126.783 201.523 132.869 202.219 139.684C202.989 147.245 197.197 155.329 200.844 162C202.967 165.886 207.64 167.632 212.036 168.164C216.431 168.693 220.949 168.333 225.231 169.45C232.19 171.268 237.519 176.672 242.874 181.475C248.228 186.278 254.631 190.912 261.814 190.577C269.616 190.214 276.049 184.089 283.74 182.722C288.95 181.797 294.26 183.13 299.526 183.648C304.795 184.164 310.687 183.623 314.381 179.832C320.357 173.701 317.411 162.793 322.394 155.831C324.597 152.754 328.056 150.881 331.113 148.652C334.17 146.421 337.094 143.359 337.279 139.579C337.659 131.802 326.745 127.284 326.532 119.499C326.421 115.458 329.353 111.667 328.738 107.67C328.319 104.954 326.282 102.715 323.926 101.296C321.571 99.8769 318.885 99.1313 316.28 98.2555C307.081 95.157 298.509 90.2071 291.225 83.7883L249.952 87.2832L249.944 87.2804Z" fill="#33296E"/>
<path d="M293.129 93.5556C293.129 93.5556 296.69 86.7183 297.267 83.9828C293.999 79.8145 293.611 78.4315 294.922 77.7303C296.233 77.0291 301.693 80.0806 303.805 83.2706C305.917 86.4605 301.862 94.5173 301.468 94.7861C301.072 95.055 296.776 98.1729 296.413 97.2195C296.05 96.2689 293.129 93.5556 293.129 93.5556Z" fill="#FFE2CF"/>
<path d="M304.545 76.8795C304.545 76.8795 298.769 73.3098 296.294 72.872C293.819 72.4341 292.007 71.9989 290.815 73.4595C289.623 74.9201 290.596 76.7188 291.984 77.65C293.373 78.5785 301.662 79.6316 301.662 79.6316L304.548 76.8823L304.545 76.8795Z" fill="#FFE2CF"/>
<path d="M299.343 121.753C299.343 121.753 290.687 114.237 289.85 108.161C289.013 102.086 293.162 95.6231 297.477 92.059C301.795 88.4948 300.218 84.0383 300.218 84.0383C300.218 84.0383 295.981 81.6188 295.69 81.2945C295.399 80.9702 290.54 82.6692 289.529 79.6316C288.514 76.594 294.49 74.0304 297.358 74.5958C301.357 75.3857 309.057 77.6417 310.259 82.5472C311.462 87.4528 313.516 96.0111 313.641 100.623C313.765 105.235 299.34 121.75 299.34 121.75L299.343 121.753Z" fill="#FFE2CF"/>
<path d="M297.854 81.4168L295.851 80.767C295.13 80.5332 294.356 80.928 294.123 81.6487L287.259 102.81C287.025 103.531 287.42 104.305 288.141 104.538L290.144 105.188C290.865 105.422 291.639 105.027 291.873 104.307L298.736 83.1451C298.97 82.4244 298.575 81.6506 297.854 81.4168Z" fill="#33296E"/>
<path d="M290.715 77.0237C293.073 75.9927 295.504 75.0005 298.131 75.3054C300.645 75.5964 302.954 76.8241 305.16 77.9826C305.717 78.2764 306.213 77.4311 305.653 77.1373C303.283 75.8901 300.831 74.6291 298.131 74.3242C295.326 74.0111 292.735 75.0781 290.221 76.1784C289.645 76.4306 290.144 77.2759 290.715 77.0237Z" fill="#33296E"/>
<path d="M293.259 97.3386C294.14 94.4451 297.214 93.1259 299.154 91.0612C301.08 89.013 301.804 86.1113 301.03 83.4035C300.859 82.7993 299.911 83.0543 300.085 83.664C300.473 85.0165 300.454 86.4327 300.022 87.7742C299.57 89.1738 298.652 90.2768 297.56 91.233C295.571 92.9707 293.134 94.398 292.317 97.0808C292.134 97.685 293.079 97.9428 293.262 97.3414L293.259 97.3386Z" fill="#33296E"/>
<path d="M297.478 83.0016C298.11 83.0016 298.11 82.0205 297.478 82.0205C296.846 82.0205 296.846 83.0016 297.478 83.0016Z" fill="#33296E"/>
<path d="M297.824 82.1648C297.641 81.9791 297.461 81.7934 297.278 81.6077C297.082 81.8655 296.882 82.1204 296.685 82.3782C297.83 83.157 299.149 83.678 300.518 83.8804C300.779 83.9192 301.045 83.8138 301.122 83.5395C301.186 83.3094 301.045 82.9768 300.781 82.9353C299.484 82.744 298.265 82.2701 297.181 81.5329C296.713 81.2142 296.206 81.9126 296.588 82.3034C296.771 82.4891 296.951 82.6747 297.134 82.8604C297.575 83.3122 298.268 82.6193 297.827 82.1676L297.824 82.1648Z" fill="#33296E"/>
<path d="M371.557 227.726C363.933 233.787 355.738 232.994 348.424 229.985C343.385 227.912 338.873 224.755 335.09 220.85C334.777 220.531 334.472 220.207 334.173 219.88L294.091 175.946C285.746 155.09 287.254 131.838 289.915 129.604C296.541 128.054 321.346 126.053 337.249 138.977C357.439 155.384 372.303 171.207 374.786 174.945L374.88 175.092C374.939 175.181 374.988 175.253 375.022 175.309C375.052 175.347 375.066 175.378 375.074 175.397L375.085 175.408L375.091 175.414C375.091 175.414 399.339 205.651 371.557 227.726Z" fill="#68DBF2"/>
<path d="M280.234 253.792L280.062 257.276L277.789 303.202C274.183 303.521 270.542 303.712 266.872 303.762C266.082 303.781 265.295 303.787 264.5 303.787C245.77 303.787 227.85 300.348 211.32 294.07C212.473 269.878 213.923 257.007 213.923 257.007L280.236 253.792H280.234Z" fill="#4C6FFF"/>
<path d="M330.983 288.258C314.708 296.334 296.752 301.539 277.789 303.205C274.184 303.524 270.542 303.715 266.872 303.765L263.574 257.378L280.065 257.281L324.575 257.012C324.575 257.012 327.632 267.361 330.985 288.264L330.983 288.258Z" fill="#4C6FFF"/>
<path d="M207.094 242.074C209.325 235.361 215.938 230.348 223.002 230.01C223.834 229.971 224.735 230.01 225.389 230.522C226.447 231.348 226.378 232.95 226.131 234.269C225.109 239.738 222.717 244.945 219.233 249.283L207.091 242.071L207.094 242.074Z" fill="#FFE2CF"/>
<path d="M254.595 136.247C253.6 146.416 245.607 173.77 232.412 190.045L189.581 217.322L185.512 219.913L168.523 230.733C162.276 236.176 157.997 251.001 150.278 251.275C140.104 251.633 129.852 247.589 122.688 239.364C113.675 229.023 111.882 214.753 116.887 202.849C118.872 198.101 121.951 193.728 126.069 190.133L143.823 174.663V174.657L143.837 174.652C143.876 174.613 143.984 174.524 144.15 174.377L144.297 174.25C144.987 173.668 146.268 172.692 148.067 171.412C156.481 165.42 176.161 152.707 198.707 142.137C220.256 132.037 247.585 129.684 254.348 132.459C254.711 132.91 254.789 134.246 254.592 136.247H254.595Z" fill="#FFE2CF"/>
<path d="M254.595 136.247C253.6 146.416 245.607 173.771 232.411 190.045L189.581 217.322L185.512 219.913C177.067 213.846 159 182.115 116.887 202.849C118.872 198.101 121.951 193.728 126.069 190.133L143.823 174.663V174.657L143.837 174.652C143.876 174.613 143.984 174.524 144.15 174.377L144.297 174.25C144.987 173.668 146.268 172.692 148.067 171.412C156.481 165.42 176.161 152.707 198.707 142.137C220.256 132.037 247.585 129.684 254.348 132.459C254.475 133.675 254.553 134.942 254.592 136.247H254.595Z" fill="#68DBF2"/>
<path d="M178.376 213.638C178.376 213.638 210.209 238.108 223.302 246.628C236.395 255.147 222.789 280.479 202.582 274.39C182.375 268.301 147.798 268.852 122.686 239.363C97.7532 210.085 134.079 172.842 178.373 213.638H178.376Z" fill="#FFE2CF"/>
<path d="M114.055 218.33C114.19 227.795 118.597 236.619 124.775 243.609C131.252 250.937 139.644 255.895 148.499 259.828C153.961 262.256 159.571 264.337 165.189 266.371C165.782 266.588 166.04 265.64 165.449 265.426C155.954 261.99 146.32 258.459 137.693 253.129C129.838 248.276 123.023 241.522 118.841 233.227C116.51 228.604 115.108 223.524 115.033 218.333C115.025 217.704 114.043 217.701 114.052 218.333L114.055 218.33Z" fill="#33296E"/>
<path d="M176.818 214.952C184.944 219.855 192.715 225.334 200.057 231.351C200.542 231.747 201.238 231.057 200.75 230.658C193.345 224.589 185.512 219.051 177.314 214.104C176.774 213.777 176.28 214.625 176.821 214.949L176.818 214.952Z" fill="#33296E"/>
<path d="M254.35 132.453C254.35 132.453 250.42 132.387 244.733 133.127C237.641 134.049 227.816 136.233 219.482 141.369C204.469 150.626 217.442 163.993 216.691 183.543C215.94 203.093 220.233 257.001 220.233 257.001H325.331C325.331 257.001 328.809 195.194 330.309 180.788C331.811 166.382 331.337 144.589 325.331 138.972C319.325 133.357 289.917 129.598 289.917 129.598L254.353 132.447L254.35 132.453Z" fill="#68DBF2"/>
<path d="M261.748 181.93C263.74 185.292 264.378 189.382 263.496 193.193C262.673 196.749 260.503 199.897 257.529 202.001C255.869 203.176 254.01 204.008 252.025 204.454C251.41 204.592 251.67 205.537 252.286 205.399C255.98 204.57 259.309 202.406 261.614 199.407C264.084 196.195 265.204 192.096 264.777 188.069C264.53 185.724 263.801 183.463 262.596 181.434C262.274 180.891 261.426 181.384 261.75 181.927L261.748 181.93Z" fill="#33296E"/>
<path d="M313.128 181.93C315.121 185.292 315.759 189.382 314.877 193.193C314.054 196.749 311.884 199.897 308.91 202.001C307.25 203.176 305.39 204.008 303.406 204.454C302.791 204.592 303.051 205.537 303.667 205.399C307.361 204.57 310.689 202.406 312.995 199.407C315.465 196.195 316.584 192.096 316.158 188.069C315.911 185.724 315.182 183.463 313.976 181.434C313.655 180.891 312.807 181.384 313.131 181.927L313.128 181.93Z" fill="#33296E"/>
<path d="M212.972 239.474C212.972 239.474 223.329 237.343 230.757 239.474C238.184 241.606 249.711 250.056 243.051 255.693C242.538 261.585 243.408 262.104 240.08 263.642C241.105 271.837 235.31 272.455 235.31 272.455C235.31 272.455 236.491 278.591 229.011 277.466C223.745 276.673 212.847 276.865 202.584 274.392C192.321 271.92 212.972 239.477 212.972 239.477V239.474Z" fill="#FFE2CF"/>
<path d="M229.864 249.427C234.87 249.804 239.573 252.271 242.774 256.126C243.176 256.611 243.866 255.915 243.467 255.433C240.097 251.373 235.116 248.84 229.864 248.446C229.235 248.399 229.238 249.38 229.864 249.427Z" fill="#33296E"/>
<path d="M227.498 259.097C231.965 259.407 236.283 261.128 239.734 263.986C240.216 264.385 240.914 263.695 240.427 263.293C236.763 260.261 232.242 258.448 227.498 258.116C226.869 258.071 226.871 259.052 227.498 259.097Z" fill="#33296E"/>
<path d="M222.67 267.76C227.115 268.586 231.328 270.324 235.061 272.874C235.582 273.231 236.076 272.38 235.555 272.028C231.76 269.437 227.448 267.655 222.928 266.815C222.312 266.702 222.046 267.644 222.667 267.76H222.67Z" fill="#33296E"/>
<path d="M213.485 240.608C218.956 238.934 224.804 238.779 230.352 240.176C230.965 240.331 231.225 239.386 230.613 239.231C224.901 237.792 218.859 237.936 213.224 239.663C212.623 239.846 212.881 240.794 213.485 240.608Z" fill="#33296E"/>
<path d="M384.644 194.063C379.414 161.351 327.762 118.36 313.815 101.204C304.633 89.9106 290.585 106.548 296.931 121.711C300.734 130.796 309.32 150.77 315.592 165.326C319.317 173.967 322.579 182.792 325.603 191.705C343.01 243.047 390.713 232.014 384.647 194.066L384.644 194.063Z" fill="#FFE2CF"/>
<path d="M306.823 146.169C312.596 157.804 316.884 170.051 321.362 182.218C322.97 186.583 324.58 190.984 326.656 195.155C329.095 200.053 331.426 205.022 334.327 209.667C337.49 214.725 341.431 219.52 346.78 222.358C347.337 222.654 347.833 221.806 347.273 221.512C342.509 218.987 338.892 214.858 335.965 210.41C332.972 205.864 330.614 200.945 328.202 196.075C323.507 186.591 320.387 176.409 316.629 166.537C313.935 159.461 311.033 152.458 307.666 145.673C307.386 145.108 306.54 145.604 306.82 146.166L306.823 146.169Z" fill="#33296E"/>
<path d="M289.915 129.604C273.463 152.516 250.512 131.566 250.512 131.566L256.709 99.2728L255.712 96.4736L281.705 95.5229C281.705 95.5229 281.705 95.5285 281.708 95.534C281.802 95.9248 284.973 109.192 287.356 119.083C288.645 124.438 289.704 128.803 289.912 129.604H289.915Z" fill="#FFE2CF"/>
<path d="M255.168 107.321C258.849 113.38 263.349 118.083 269.915 120.278C279.71 123.551 287.362 119.083 287.362 119.083C284.975 109.195 281.805 95.9276 281.713 95.534C281.708 95.5285 281.711 95.5229 281.711 95.5229L255.717 96.4736L256.714 99.2728L255.171 107.321H255.168Z" fill="#33296E"/>
<path d="M292.672 72.2952C293.365 74.9696 293.609 78.1319 293.468 81.4993C293.409 82.8961 293.282 84.3262 293.096 85.7757C291.5 98.1782 285.394 111.7 277.687 113.693C269.727 115.752 254.897 103.976 247.885 92.3469C247.824 92.2472 247.763 92.1502 247.707 92.0532C246.227 89.5616 245.116 87.0811 244.512 84.7503C241.072 71.4526 249.063 57.8806 262.36 54.4412C275.663 51.0017 289.233 58.9975 292.669 72.2952H292.672Z" fill="#FFE2CF"/>
<path d="M278.726 84.8472C279.297 87.6991 280.092 90.5011 281.107 93.2282C281.22 93.0259 281.334 92.8263 281.448 92.624C280.572 92.9594 279.693 93.2975 278.818 93.6329C278.236 93.8573 278.488 94.8052 279.078 94.5779C279.954 94.2426 280.832 93.9045 281.708 93.5691C281.938 93.4804 282.149 93.2338 282.049 92.9677C281.038 90.2405 280.242 87.4386 279.668 84.5867C279.544 83.9686 278.599 84.2292 278.723 84.8472H278.726Z" fill="#33296E"/>
<path d="M272.82 85.8835C273.036 86.7149 272.534 87.563 271.703 87.7792C270.871 87.9953 270.023 87.4937 269.807 86.6623C269.591 85.8308 270.093 84.9827 270.924 84.7665C271.755 84.5504 272.604 85.052 272.82 85.8835Z" fill="#33296E"/>
<path d="M283.324 85.6313C283.54 86.4627 284.388 86.9616 285.219 86.7482C286.051 86.532 286.55 85.684 286.336 84.8525C286.12 84.0211 285.272 83.5222 284.441 83.7356C283.609 83.9518 283.11 84.7998 283.324 85.6313Z" fill="#33296E"/>
<path d="M268.41 95.0409C270.271 94.7655 271.556 93.0336 271.281 91.1727C271.005 89.3118 269.273 88.0266 267.412 88.302C265.552 88.5775 264.266 90.3093 264.542 92.1702C264.817 94.0311 266.549 95.3164 268.41 95.0409Z" fill="#FFB3B3"/>
<path d="M284.937 91.615C285.408 93.4359 287.265 94.5306 289.086 94.0594C290.907 93.5883 292.002 91.7314 291.53 89.9105C291.059 88.0896 289.202 86.9949 287.381 87.4661C285.561 87.9372 284.466 89.7941 284.937 91.615Z" fill="#FFB3B3"/>
<path d="M292.672 72.2948C293.365 74.9692 293.609 78.1315 293.468 81.4989C293.409 82.8957 293.282 84.3258 293.096 85.7753C292.805 85.9582 293.412 85.6284 293.096 85.7753C290.876 79.7584 287.833 62.6195 274.937 65.9536C259.55 69.9334 271.614 85.0464 254.592 91.0412C253.336 91.4846 247.885 92.3438 247.885 92.3438C247.824 92.244 247.763 92.147 247.707 92.05C246.227 89.5584 245.116 87.0779 244.512 84.7471C241.072 71.4494 249.063 57.8774 262.36 54.438C275.663 50.9986 289.233 58.9943 292.669 72.292L292.672 72.2948Z" fill="#33296E"/>
<path d="M254.592 91.0441C253.691 90.1239 252.685 89.2398 251.427 88.8269C250.172 88.4111 248.611 88.5746 247.708 89.5114C246.693 90.5646 246.802 92.1915 247.239 93.5384C248.096 96.1713 249.991 98.4772 252.478 99.9101C254.964 101.343 258.021 101.892 260.919 101.423L254.592 91.0441Z" fill="#FFE2CF"/>
<path d="M249.146 91.6011C250.592 91.2297 252.094 91.9032 253.089 92.9508C254.212 94.1315 254.736 95.7445 255.237 97.2605C255.434 97.8564 256.382 97.6014 256.182 97C255.609 95.265 254.982 93.4247 253.641 92.1166C252.399 90.9054 250.603 90.2153 248.882 90.6588C248.273 90.8168 248.53 91.7618 249.143 91.6039L249.146 91.6011Z" fill="#33296E"/>
<path d="M252.951 95.4867C252.28 95.3232 251.679 94.8687 251.413 94.2645C251.105 93.5633 251.266 92.7873 251.726 92.1803C251.887 91.9697 251.759 91.6316 251.551 91.5096C251.299 91.3628 251.041 91.4736 250.881 91.6843C250.265 92.4935 250.099 93.6326 250.49 94.5777C250.875 95.5089 251.715 96.1935 252.69 96.4318C253.303 96.5815 253.563 95.6364 252.951 95.4867Z" fill="#33296E"/>
<path d="M278.826 97.3244C276.756 97.0472 274.688 96.7673 272.618 96.4901C272.285 96.4458 271.878 96.698 272.017 97.0943C272.701 99.051 274.17 100.692 276.077 101.526C276.318 101.631 276.603 101.598 276.748 101.351C276.869 101.143 276.814 100.789 276.573 100.681C274.902 99.949 273.569 98.5632 272.964 96.8338C272.765 97.0334 272.563 97.2357 272.36 97.438C274.431 97.7151 276.498 97.9951 278.568 98.2722C278.832 98.3082 279.095 98.2085 279.173 97.9313C279.236 97.7041 279.095 97.3632 278.832 97.3271L278.826 97.3244Z" fill="#33296E"/>
<path d="M268.331 81.4547C269.536 80.3351 271.318 79.9886 272.865 80.5207C273.463 80.7258 273.718 79.7808 273.125 79.5757C271.246 78.9299 269.087 79.4149 267.638 80.7619C267.175 81.1914 267.868 81.8843 268.331 81.4547Z" fill="#33296E"/>
<path d="M281.681 79.3871C282.831 78.5751 284.388 78.4587 285.627 79.146C286.179 79.4536 286.675 78.6056 286.12 78.3007C284.596 77.4526 282.614 77.5302 281.184 78.5418C280.968 78.6942 280.866 78.9686 281.01 79.2125C281.135 79.4259 281.464 79.5423 281.681 79.3871Z" fill="#33296E"/>
<path d="M216.758 200.884C221.439 197.569 226.32 194.523 231.148 191.433C231.652 191.112 232.154 190.79 232.658 190.469C233.187 190.13 232.697 189.282 232.165 189.623C228.035 192.253 223.919 194.903 219.84 197.611C218.64 198.409 217.44 199.207 216.265 200.041C215.755 200.402 216.242 201.252 216.758 200.887V200.884Z" fill="#33296E"/>
<g clip-path="url(#clip1_35_39544)">
<path d="M398.289 15.2874H332.757C332.152 15.2874 331.554 15.2853 330.951 15.3546C327.902 15.7049 325.159 17.3585 323.404 19.8757C322.114 21.7228 321.544 23.9019 321.544 26.136V42.6583C321.616 42.4893 321.685 42.3182 321.756 42.1492C319.838 44.3038 317.921 46.4564 316.003 48.6111C312.948 52.0406 309.895 55.4721 306.841 58.9016C306.142 59.6857 305.443 60.4698 304.747 61.2538C304.262 61.7976 304.733 62.6101 305.448 62.4574C310.413 61.3923 315.378 60.3272 320.343 59.2621C321.047 59.1114 321.754 58.9586 322.459 58.8079C322.155 58.5758 321.852 58.3457 321.546 58.1135V61.6346C321.546 63.494 321.941 65.2943 322.835 66.9337C324.678 70.3143 328.289 72.4242 332.124 72.4445C334.515 72.4567 336.906 72.4445 339.297 72.4445H390.194C392.845 72.4445 395.497 72.4486 398.146 72.4445C401.348 72.4405 404.437 71.0536 406.459 68.5425C407.856 66.8074 408.689 64.6996 408.82 62.4717C408.844 62.0623 408.836 61.653 408.836 61.2436V30.1133C408.836 28.7386 408.836 27.3619 408.836 25.9873C408.832 22.4559 407.152 19.171 404.248 17.1467C402.506 15.933 400.407 15.3037 398.289 15.2874C397.362 15.2813 397.36 16.7211 398.289 16.7272C402.508 16.7577 406.235 19.727 407.176 23.8489C407.48 25.1747 407.396 26.5738 407.396 27.9281V59.3782C407.396 60.4962 407.457 61.6428 407.359 62.7588C406.997 66.9011 403.622 70.3693 399.519 70.9294C398.672 71.0454 397.794 71.0067 396.938 71.0067H332.926C331.411 71.0067 329.935 70.8907 328.515 70.2756C326.674 69.4793 325.126 68.0762 324.143 66.3288C323.29 64.8137 322.984 63.1722 322.984 61.4514V58.1155C322.984 57.6268 322.526 57.3233 322.072 57.4211C317.107 58.4862 312.142 59.5513 307.179 60.6164C306.474 60.7671 305.767 60.9198 305.063 61.0705L305.763 62.2741C308.124 59.6246 310.482 56.9751 312.842 54.3235C315.946 50.839 319.047 47.3525 322.151 43.868C322.357 43.6379 322.585 43.4138 322.772 43.1695C323.09 42.754 322.984 42.1308 322.984 41.6319V27.2581C322.984 26.7856 322.982 26.3131 322.984 25.8386C322.996 24.0505 323.512 22.3215 324.495 20.8267C326.183 18.2587 329.09 16.7415 332.146 16.7272C332.77 16.7252 333.393 16.7272 334.016 16.7272H398.289C399.215 16.7272 399.215 15.2874 398.289 15.2874Z" fill="#FFBD02"/>
<path d="M366.436 55.0399C366.793 54.1775 366.384 53.1887 365.521 52.8314C364.659 52.4742 363.67 52.8837 363.313 53.7462C362.956 54.6087 363.365 55.5975 364.228 55.9547C365.09 56.312 366.079 55.9024 366.436 55.0399Z" fill="#FFBD02"/>
<path d="M365.493 48.6275C365.491 47.5685 365.454 46.4769 365.764 45.4525C366.073 44.4302 366.721 43.4608 367.452 42.693C368.289 41.8153 369.283 41.1045 370.112 40.2186C371.004 39.2655 371.641 38.1251 371.833 36.8217C372.216 34.2109 370.983 31.6836 368.739 30.315C366.684 29.0605 363.813 28.9057 361.595 29.8181C358.829 30.9545 357.654 33.8789 357.292 36.6629C357.241 37.0498 357.658 37.3838 358.013 37.3838C358.445 37.3838 358.683 37.0518 358.734 36.6629C359.003 34.5938 359.866 32.2599 361.843 31.2763C363.705 30.3496 366.32 30.5003 368.071 31.594C369.931 32.7548 370.89 35.0011 370.301 37.1394C369.686 39.3755 367.413 40.4447 366.029 42.133C365.297 43.0229 364.662 44.0534 364.346 45.1694C364.031 46.2875 364.051 47.4748 364.053 48.6254C364.055 49.552 365.497 49.5541 365.493 48.6254V48.6275Z" fill="#FFBD02"/>
</g>
</g>
<defs>
<clipPath id="clip0_35_39544">
<rect width="423" height="286" rx="4" fill="white"/>
</clipPath>
<clipPath id="clip1_35_39544">
<rect width="104.291" height="57.1653" fill="white" transform="translate(304.548 15.2874)"/>
</clipPath>
</defs>
</svg>
