<svg width="514" height="542" viewBox="0 0 514 542" fill="none" xmlns="http://www.w3.org/2000/svg">
<rect width="513.002" height="542" rx="8" fill="#EAEEFF"/>
<path d="M439.381 439.079H86.0946C85.7739 439.079 85.5137 438.818 85.5137 438.498V233.321C85.5137 233.001 85.7739 232.74 86.0946 232.74H439.381C439.702 232.74 439.962 233.001 439.962 233.321V438.498C439.962 438.818 439.702 439.079 439.381 439.079ZM86.6728 437.919H438.803V233.902H86.6728V437.919Z" fill="#33296E"/>
<path d="M424.696 424.764H101.361C101.04 424.764 100.783 424.504 100.78 424.186L100.549 247.636C100.549 247.481 100.609 247.334 100.72 247.226C100.827 247.118 100.975 247.055 101.13 247.055H424.696C425.017 247.055 425.277 247.315 425.277 247.636V424.186C425.277 424.506 425.017 424.767 424.696 424.767V424.764ZM101.937 423.605H424.118V248.214H101.711L101.939 423.605H101.937Z" fill="#33296E"/>
<path d="M314.367 479.706H211.111C210.79 479.706 210.53 479.446 210.53 479.125V438.571C210.53 438.25 210.79 437.99 211.111 437.99H314.367C314.688 437.99 314.948 438.25 314.948 438.571V479.125C314.948 479.446 314.688 479.706 314.367 479.706ZM211.689 478.547H313.786V439.152H211.689V478.547Z" fill="#33296E"/>
<path d="M379.11 511.434H146.364C146.133 511.434 145.925 511.298 145.833 511.087C145.741 510.877 145.783 510.63 145.939 510.462L148.47 507.733C165.673 489.187 190.044 478.55 215.332 478.55H310.14C335.428 478.55 359.799 489.187 377.002 507.733L379.534 510.462C379.691 510.63 379.731 510.877 379.639 511.087C379.547 511.298 379.336 511.434 379.108 511.434H379.11ZM147.694 510.275H377.78L376.153 508.522C359.168 490.21 335.108 479.709 310.14 479.709H215.332C190.364 479.709 166.304 490.212 149.319 508.522L147.692 510.275H147.694Z" fill="#33296E"/>
<path d="M353.01 510.922H487.857V420.188H353.01V510.922Z" fill="white"/>
<path d="M353.01 510.922H487.857V420.188H353.01V510.922Z" fill="#FFBD02"/>
<path d="M487.858 511.503H353.011C352.69 511.503 352.43 511.242 352.43 510.922V420.188C352.43 419.867 352.69 419.607 353.011 419.607H487.858C488.178 419.607 488.439 419.867 488.439 420.188V510.922C488.439 511.242 488.178 511.503 487.858 511.503ZM353.591 510.343H487.279V420.771H353.591V510.343Z" fill="#33296E"/>
<path d="M473.904 420.19H457.521V510.924H473.904V420.19Z" fill="#33296E"/>
<path d="M353.09 449.224V465.63H487.858V449.224H353.09Z" fill="#33296E"/>
<path d="M459.402 419.52L436.203 415.028C430.478 413.919 427.613 407.429 430.649 402.443C433.624 397.554 440.511 397.031 444.191 401.413L459.402 419.523V419.52Z" fill="#4C6FFF"/>
<path d="M461.573 417.543L446.446 399.365C442.714 394.878 444.596 388.039 450.097 386.099C455.491 384.199 461.153 388.157 461.237 393.882L461.576 417.543H461.573Z" fill="#4C6FFF"/>
<path d="M464.097 417.974L464.459 394.313C464.549 388.473 470.429 384.514 475.862 386.638C481.187 388.717 482.906 395.417 479.242 399.812L464.097 417.974Z" fill="#4C6FFF"/>
<path d="M466.42 419.77L481.649 401.676C485.408 397.21 492.463 397.87 495.328 402.956C498.137 407.942 495.236 414.218 489.624 415.299L466.42 419.767V419.77Z" fill="#4C6FFF"/>
<path d="M459.402 420.101C459.365 420.101 459.328 420.098 459.292 420.09L436.093 415.598C433.178 415.033 430.815 413.151 429.614 410.431C428.41 407.708 428.607 404.685 430.155 402.141C431.672 399.649 434.211 398.093 437.115 397.872C440.017 397.654 442.761 398.805 444.635 401.037L459.846 419.147C460.004 419.336 460.028 419.602 459.901 419.814C459.796 419.993 459.604 420.101 459.402 420.101ZM437.812 399.005C437.61 399.005 437.405 399.013 437.202 399.029C434.674 399.221 432.466 400.574 431.146 402.743C429.798 404.958 429.624 407.587 430.673 409.96C431.719 412.329 433.775 413.966 436.314 414.458L457.906 418.64L443.75 401.783C442.249 399.999 440.114 399.005 437.815 399.005H437.812Z" fill="#33296E"/>
<path d="M461.573 418.122C461.405 418.122 461.239 418.048 461.129 417.914L446.002 399.736C444.099 397.446 443.461 394.489 444.252 391.619C445.043 388.751 447.104 386.541 449.906 385.555C452.652 384.588 455.596 384.988 457.983 386.654C460.377 388.323 461.773 390.954 461.815 393.877L462.154 417.538C462.157 417.783 462.007 418.006 461.776 418.09C461.71 418.114 461.642 418.127 461.576 418.127L461.573 418.122ZM452.894 386.194C452.024 386.194 451.146 386.344 450.289 386.643C447.85 387.503 446.058 389.427 445.369 391.924C444.68 394.424 445.235 397 446.893 398.992L460.971 415.911L460.656 393.887C460.619 391.346 459.405 389.054 457.32 387.6C455.988 386.67 454.453 386.194 452.897 386.194H452.894Z" fill="#33296E"/>
<path d="M464.097 418.555C464.028 418.555 463.96 418.545 463.894 418.518C463.663 418.434 463.513 418.211 463.516 417.966L463.878 394.305C463.923 391.327 465.366 388.665 467.837 387.006C470.302 385.35 473.304 385.019 476.069 386.099C478.782 387.158 480.753 389.387 481.481 392.21C482.209 395.039 481.555 397.943 479.686 400.185L464.541 418.348C464.428 418.482 464.265 418.555 464.097 418.555ZM472.799 386.633C471.291 386.633 469.8 387.082 468.486 387.965C466.336 389.411 465.08 391.727 465.04 394.321L464.704 416.342L478.8 399.439C480.427 397.488 480.995 394.957 480.364 392.497C479.733 390.039 478.014 388.099 475.654 387.177C474.721 386.811 473.759 386.633 472.802 386.633H472.799Z" fill="#33296E"/>
<path d="M466.42 420.35C466.217 420.35 466.026 420.243 465.92 420.064C465.797 419.851 465.818 419.586 465.978 419.396L481.207 401.302C483.124 399.026 485.912 397.88 488.877 398.156C491.837 398.432 494.373 400.077 495.835 402.672C497.267 405.213 497.386 408.191 496.161 410.841C494.936 413.485 492.594 415.317 489.737 415.869L466.533 420.337C466.496 420.345 466.459 420.348 466.422 420.348L466.42 420.35ZM488.013 399.278C485.72 399.278 483.594 400.264 482.091 402.051L467.915 418.892L489.511 414.734C492 414.255 494.037 412.66 495.104 410.357C496.171 408.049 496.069 405.458 494.823 403.245C493.551 400.987 491.343 399.554 488.767 399.315C488.515 399.291 488.262 399.281 488.013 399.281V399.278Z" fill="#33296E"/>
<path d="M350.77 445.741V462.148H489.575V445.741H350.77Z" fill="#4C6FFF"/>
<path d="M470.427 420.769H454.044V510.351H470.427V420.769Z" fill="#4C6FFF"/>
<path d="M314.409 423.623L248.546 423.607V334.448H314.409V423.623Z" fill="#4C6FFF"/>
<path d="M314.409 346.917L193.971 365.595L202.805 342.433L314.409 340.809V346.917Z" fill="#33296E"/>
<path d="M238.153 424.146L172.382 423.899L205.603 334.448H271.466L238.153 424.146Z" fill="#4C6FFF"/>
<path d="M238.153 424.727H172.29C172.1 424.727 171.922 424.635 171.814 424.477C171.706 424.322 171.68 424.122 171.746 423.944L205.061 334.245C205.174 333.946 205.508 333.793 205.808 333.904C206.107 334.014 206.26 334.348 206.149 334.65L173.126 423.565H237.754L251.989 385.232C252.102 384.932 252.436 384.78 252.736 384.89C253.036 385.001 253.188 385.334 253.078 385.637L238.7 424.346C238.616 424.572 238.398 424.724 238.156 424.724L238.153 424.727Z" fill="#33296E"/>
<path d="M356.853 379.298L364.065 388.944C365.584 392.498 365.427 396.488 363.949 400.06C359.662 410.432 373.606 423.458 376.201 435.097C377.21 439.25 378.747 445.795 384.472 443.818C387.172 443.135 388.835 440.393 388.223 437.644L384.27 419.933L392.928 420.79C401.618 421.347 410.665 435.444 418.34 439.168C426.02 442.895 427.881 435.365 427.881 435.365C427.881 435.365 437.617 446.951 442.477 441.437C444.377 439.347 444.356 436.122 442.429 434.059L394.981 383.235L386.036 369.386L356.855 379.292L356.853 379.298Z" fill="#FFE2CF"/>
<path d="M386.628 368.849L392.844 379.933C385.487 380.591 383.418 382.901 380.869 385.169C378.253 387.498 376.726 390.184 371.511 390.899C368.707 391.286 365.789 389.906 364.065 388.944C361.352 385.493 358.353 382.638 356.853 378.874L386.628 368.849Z" fill="#33296E"/>
<path d="M427.918 435.998C427.768 435.998 427.618 435.94 427.505 435.825L417.005 425.135C415.062 423.156 413.504 421.429 411.998 419.757C409.293 416.755 406.738 413.919 402.243 409.932C402.004 409.719 401.983 409.354 402.193 409.114C402.406 408.875 402.772 408.854 403.011 409.065C407.553 413.097 410.129 415.956 412.857 418.982C414.355 420.643 415.903 422.362 417.83 424.323L428.331 435.013C428.554 435.241 428.551 435.609 428.323 435.833C428.21 435.943 428.063 435.998 427.915 435.998H427.918Z" fill="#33296E"/>
<path d="M384.267 420.517C384.004 420.517 383.768 420.338 383.705 420.07L379.993 404.436C379.92 404.123 380.112 403.813 380.424 403.737C380.734 403.663 381.047 403.855 381.121 404.168L384.832 419.802C384.906 420.114 384.714 420.425 384.401 420.501C384.356 420.511 384.312 420.517 384.267 420.517Z" fill="#33296E"/>
<path d="M382.506 444.764C381.694 444.764 380.934 444.577 380.243 444.199C377.444 442.672 376.416 438.435 375.664 435.344L375.638 435.236C374.65 430.804 371.929 426.065 369.298 421.481C365.058 414.095 360.677 406.46 363.413 399.839C364.885 396.275 364.938 392.513 363.558 389.236L355.914 379.013L385.518 368.589L395.43 382.875L442.85 433.667C444.974 435.943 444.997 439.528 442.902 441.831C441.906 442.958 440.637 443.529 439.167 443.508C434.886 443.458 429.881 438.44 428.096 436.492C427.631 437.602 426.63 439.363 424.737 440.248C422.879 441.118 420.64 440.932 418.082 439.691C414.878 438.138 411.537 434.915 408.002 431.504C403 426.678 397.827 421.689 392.886 421.371L385.006 420.59L388.785 437.517C389.461 440.545 387.589 443.623 384.611 444.378C383.878 444.633 383.171 444.759 382.501 444.759L382.506 444.764ZM357.791 379.584L364.598 388.718C366.128 392.3 366.089 396.406 364.485 400.283C361.967 406.376 366.015 413.433 370.305 420.906C372.978 425.566 375.743 430.381 376.768 434.973L376.792 435.07C377.494 437.954 378.453 441.899 380.8 443.182C381.778 443.715 382.916 443.744 384.286 443.274C386.706 442.659 388.199 440.198 387.658 437.775L383.529 419.284L392.986 420.22C398.332 420.561 403.66 425.703 408.812 430.673C412.278 434.019 415.553 437.178 418.592 438.653C420.821 439.733 422.721 439.917 424.248 439.202C426.582 438.109 427.31 435.26 427.316 435.231L427.589 434.124L428.322 434.997C428.383 435.07 434.515 442.296 439.186 442.349C440.313 442.354 441.265 441.938 442.043 441.055C443.741 439.189 443.723 436.293 442.006 434.455L394.529 383.603L394.505 383.569L385.071 369.974L357.791 379.581V379.584Z" fill="#33296E"/>
<path d="M397.607 375.843L355.762 389.243L299.09 310.385L279.195 220.857L306.418 216.131C325.327 212.848 347.58 227.765 347.58 247.189L351.74 310.382L397.607 375.838V375.843Z" fill="#68DBF2"/>
<path d="M222.169 226.608L220.549 226.716C193.077 227.576 184.169 266.934 207.155 282.736L208.175 283.414L197.714 346.92H324.313L330.92 220.863L222.171 226.608H222.169Z" fill="#68DBF2"/>
<path d="M324.31 347.498H314.409C314.088 347.498 313.828 347.238 313.828 346.917C313.828 346.597 314.088 346.337 314.409 346.337H323.761L329.102 244.406C329.118 244.085 329.375 243.84 329.712 243.856C330.03 243.872 330.277 244.145 330.261 244.466L324.891 346.946C324.875 347.254 324.621 347.496 324.313 347.496L324.31 347.498Z" fill="#33296E"/>
<path d="M403.888 223.496C403.717 223.496 403.549 223.423 403.436 223.281L354.494 162.348L340.53 172.173L380.716 222.203C380.916 222.453 380.876 222.818 380.626 223.018C380.377 223.218 380.011 223.178 379.812 222.929L339.239 172.418C339.139 172.294 339.094 172.131 339.115 171.974C339.139 171.816 339.226 171.674 339.357 171.579L354.271 161.084C354.521 160.908 354.865 160.958 355.057 161.194L404.34 222.55C404.54 222.8 404.501 223.165 404.251 223.365C404.143 223.452 404.017 223.494 403.888 223.494V223.496Z" fill="#33296E"/>
<path d="M361.52 174.812L340.556 192.681L345.734 178.185L350.967 173.556C353.895 170.964 358.334 171.232 360.939 174.158L361.52 174.81V174.812Z" fill="#FFE2CF"/>
<path d="M385.722 210.877L368.316 234.933L332.044 226.869L335.926 197.625C336.97 189.76 340.799 182.545 346.703 177.325L350.312 174.132L385.719 210.877H385.722Z" fill="#FFE2CF"/>
<path d="M374.842 176.552L350.963 197.675L344.071 189.687L367.951 168.567C370.04 166.719 373.215 166.935 375.04 169.051L375.321 169.377C377.148 171.493 376.932 174.707 374.842 176.555V176.552Z" fill="#FFE2CF"/>
<path d="M385.325 181.365L360.192 203.596L353.3 195.608L378.433 173.377C380.536 171.516 383.729 171.734 385.567 173.866L385.806 174.142C387.643 176.271 387.428 179.504 385.325 181.365Z" fill="#FFE2CF"/>
<path d="M399.072 197.372L374.341 219.246L367.449 211.258L392.18 189.384C394.301 187.508 397.524 187.729 399.377 189.876L399.558 190.086C401.411 192.234 401.193 195.498 399.072 197.372Z" fill="#FFE2CF"/>
<path d="M388.177 217.53L368.519 234.786L361.593 226.758L394.837 197.483L393.526 207.431C393.011 211.342 391.108 214.93 388.174 217.527L388.177 217.53Z" fill="#FFE2CF"/>
<path d="M390.592 183.365L390.967 183.799C392.768 185.886 392.263 189.311 389.842 191.451L365.682 212.822L358.79 204.835L382.951 183.463C385.371 181.323 388.791 181.279 390.592 183.363V183.365Z" fill="#FFE2CF"/>
<path d="M376.843 189.445C376.682 189.445 376.522 189.379 376.409 189.25C376.196 189.011 376.22 188.643 376.459 188.433L384.938 180.931C386.802 179.283 386.991 176.408 385.364 174.521L385.125 174.245C384.337 173.333 383.246 172.786 382.052 172.704C380.864 172.626 379.713 173.017 378.814 173.814L369.181 182.335C368.942 182.548 368.576 182.524 368.363 182.285C368.151 182.046 368.174 181.678 368.413 181.468L378.047 172.946C379.18 171.945 380.636 171.448 382.131 171.551C383.635 171.653 385.012 172.342 386.003 173.49L386.242 173.766C388.282 176.132 388.04 179.736 385.706 181.801L377.227 189.303C377.116 189.4 376.979 189.448 376.843 189.448V189.445Z" fill="#33296E"/>
<path d="M382.491 198.534C382.33 198.534 382.17 198.468 382.057 198.339C381.844 198.1 381.868 197.732 382.107 197.522L390.113 190.441C391.932 188.832 392.119 186.023 390.531 184.177L390.155 183.744C389.385 182.853 388.321 182.316 387.154 182.238C385.994 182.159 384.867 182.543 383.989 183.321L376.264 190.155C376.025 190.367 375.657 190.344 375.446 190.105C375.234 189.865 375.257 189.497 375.496 189.287L383.221 182.453C384.333 181.47 385.747 180.981 387.232 181.081C388.71 181.181 390.058 181.857 391.033 182.984L391.409 183.418C393.412 185.739 393.175 189.279 390.883 191.306L382.877 198.387C382.767 198.484 382.63 198.531 382.493 198.531L382.491 198.534Z" fill="#33296E"/>
<path d="M369.938 232.864L347.832 271.555L320.297 242.282L343.154 201.817L369.938 232.864Z" fill="#FFE2CF"/>
<path d="M363.327 244.437L347.832 271.555L320.297 242.282L326.048 232.099C326.048 232.099 334.199 228.593 339.69 232.099C345.364 235.724 345.117 245.943 352.072 248.065C358.194 249.931 363.325 244.437 363.325 244.437H363.327Z" fill="#33296E"/>
<path d="M346.274 188.317C346.113 188.317 345.953 188.252 345.84 188.123C345.627 187.884 345.651 187.516 345.89 187.305L367.567 168.131C368.694 167.135 370.137 166.64 371.63 166.743C373.126 166.843 374.493 167.529 375.478 168.672L375.76 168.996C377.789 171.348 377.55 174.933 375.226 176.989L367.475 183.846C367.236 184.059 366.868 184.036 366.657 183.796C366.444 183.557 366.468 183.189 366.707 182.979L374.459 176.121C376.309 174.484 376.498 171.629 374.882 169.755L374.6 169.429C373.82 168.522 372.737 167.978 371.551 167.9C370.369 167.821 369.228 168.21 368.334 169.001L346.657 188.175C346.547 188.273 346.41 188.32 346.274 188.32V188.317Z" fill="#33296E"/>
<path d="M347.948 272.522L319.582 242.369L332.419 219.64L335.353 197.548C336.309 190.339 339.637 183.539 344.723 178.4C344.949 178.172 345.317 178.172 345.543 178.395C345.772 178.621 345.772 178.986 345.548 179.215C340.641 184.175 337.429 190.741 336.504 197.701L333.539 220.014L333.484 220.111L321.012 242.193L347.72 270.585L368.61 234.018L368.684 233.955L387.795 217.094C390.626 214.589 392.461 211.132 392.958 207.358L393.733 201.478L398.685 196.944C400.575 195.272 400.767 192.368 399.124 190.462L398.943 190.252C398.149 189.329 397.045 188.777 395.841 188.696C394.643 188.614 393.478 189.011 392.569 189.816L381.647 199.478C381.408 199.691 381.043 199.667 380.83 199.428C380.617 199.189 380.641 198.821 380.88 198.61L391.801 188.948C392.942 187.939 394.411 187.439 395.917 187.539C397.434 187.642 398.819 188.336 399.821 189.495L400.002 189.705C402.057 192.089 401.816 195.722 399.46 197.806L394.829 202.048L394.109 207.51C393.575 211.561 391.607 215.275 388.566 217.964L369.525 234.762L347.951 272.522H347.948Z" fill="#33296E"/>
<path d="M305.265 156.834C305.23 156.834 305.196 156.831 305.162 156.826C304.847 156.771 304.636 156.469 304.694 156.153L322.849 54.8056C322.907 54.4901 323.201 54.2799 323.522 54.3377C323.837 54.3929 324.047 54.6952 323.99 55.0106L305.835 156.358C305.785 156.639 305.541 156.837 305.265 156.837V156.834Z" fill="#33296E"/>
<path d="M309.362 191.908C307.627 191.908 305.89 191.411 304.357 190.412C302.391 189.132 300.988 187.166 300.407 184.874C300.328 184.564 300.514 184.248 300.825 184.17C301.132 184.091 301.45 184.277 301.529 184.587C302.039 186.596 303.269 188.32 304.988 189.44C307.748 191.237 311.273 191.174 313.969 189.277L417.633 116.358C417.896 116.174 418.256 116.237 418.44 116.5C418.624 116.763 418.561 117.123 418.298 117.307L314.635 190.223C313.044 191.34 311.202 191.902 309.359 191.902L309.362 191.908Z" fill="#33296E"/>
<path d="M411.29 118.351C399.777 118.351 381.026 111.054 362.398 99.058C349.38 90.6759 338.206 81.0821 330.936 72.0429C323.537 62.8433 321.053 55.2471 323.936 50.6552C325.135 48.7443 327.193 47.4538 330.053 46.8177C341.013 44.3785 362.517 51.8406 383.557 65.3903C410.42 82.6854 427.51 104.536 421.651 114.095C420.49 115.99 418.5 117.27 415.737 117.901C414.415 118.204 412.925 118.351 411.29 118.351ZM334.76 47.509C333.125 47.509 331.632 47.6535 330.302 47.9505C327.758 48.5183 325.944 49.6354 324.917 51.2729C322.354 55.3549 324.877 62.6593 331.837 71.3174C339.031 80.262 350.105 89.7691 363.024 98.0855C381.473 109.966 399.964 117.202 411.209 117.205C412.78 117.205 414.208 117.063 415.477 116.774C417.924 116.214 419.669 115.11 420.66 113.491C426.099 104.617 408.819 83.0376 382.926 66.3654C364.719 54.6426 346.244 47.5116 334.758 47.5116L334.76 47.509Z" fill="#33296E"/>
<path d="M355.779 47.467C355.708 47.467 355.637 47.4539 355.566 47.4276C355.267 47.3093 355.122 46.9728 355.24 46.6758L360.684 32.8607C360.802 32.5637 361.139 32.4165 361.436 32.5348C361.735 32.6531 361.88 32.9895 361.762 33.2865L356.318 47.1016C356.229 47.3303 356.011 47.4696 355.779 47.4696V47.467Z" fill="#33296E"/>
<path d="M344.577 75.9039C344.506 75.9039 344.435 75.8907 344.364 75.8644C344.065 75.7462 343.92 75.4097 344.038 75.1127L353.559 50.952C353.677 50.655 354.013 50.5078 354.31 50.6261C354.61 50.7444 354.754 51.0808 354.636 51.3778L345.116 75.5385C345.027 75.7672 344.808 75.9065 344.577 75.9065V75.9039Z" fill="#33296E"/>
<path d="M372.528 55.3337C372.441 55.3337 372.354 55.3153 372.27 55.2733C371.984 55.1313 371.865 54.7844 372.007 54.4953L382.087 34.1537C382.229 33.8672 382.579 33.749 382.865 33.8909C383.152 34.0328 383.27 34.3798 383.128 34.6689L373.048 55.0104C372.946 55.2155 372.741 55.3337 372.528 55.3337Z" fill="#33296E"/>
<path d="M356.372 87.9449C356.285 87.9449 356.198 87.9265 356.114 87.8845C355.827 87.7425 355.709 87.3956 355.851 87.1065L370.126 58.2856C370.268 57.9991 370.615 57.8808 370.904 58.0227C371.191 58.1647 371.309 58.5116 371.167 58.8007L356.892 87.6216C356.789 87.8267 356.584 87.9449 356.372 87.9449Z" fill="#33296E"/>
<path d="M373.729 42.2283C373.642 42.2283 373.555 42.2099 373.471 42.1679C373.185 42.0259 373.067 41.679 373.209 41.3899L378.313 31.0864C378.455 30.7999 378.802 30.6816 379.091 30.8235C379.377 30.9654 379.496 31.3124 379.354 31.6015L374.249 41.905C374.147 42.11 373.942 42.2283 373.729 42.2283Z" fill="#33296E"/>
<path d="M271.223 326.941L261.54 320.283L321.603 230.709L364.701 260.339L327.327 316.078C314.798 334.766 289.678 339.629 271.223 326.941Z" fill="#68DBF2"/>
<path d="M270.087 308.114C269.977 308.114 269.864 308.082 269.764 308.017C269.498 307.838 269.427 307.478 269.604 307.212L321.118 230.385C321.205 230.257 321.339 230.167 321.492 230.138C321.647 230.109 321.802 230.141 321.928 230.23L326.777 233.566C327.04 233.747 327.109 234.107 326.927 234.373C326.746 234.636 326.386 234.704 326.12 234.523L321.754 231.521L270.566 307.859C270.452 308.024 270.271 308.116 270.082 308.116L270.087 308.114Z" fill="#33296E"/>
<path d="M293.828 334.595C285.701 334.595 277.763 332.143 270.895 327.42L261.211 320.762C260.949 320.581 260.88 320.22 261.062 319.955C261.243 319.692 261.606 319.624 261.868 319.805L271.552 326.463C280.32 332.49 290.884 334.714 301.298 332.724C311.78 330.718 320.853 324.694 326.849 315.755L363.905 260.492L326.129 234.52C325.866 234.339 325.798 233.979 325.979 233.713C326.16 233.45 326.523 233.382 326.786 233.563L365.035 259.858C365.298 260.037 365.366 260.394 365.187 260.66L327.814 316.399C321.647 325.596 312.308 331.796 301.519 333.859C298.956 334.348 296.385 334.59 293.833 334.59L293.828 334.595Z" fill="#33296E"/>
<path d="M290.887 277.098C290.774 277.098 290.658 277.064 290.558 276.996L243.893 244.913C243.63 244.731 243.562 244.371 243.743 244.106C243.925 243.843 244.287 243.775 244.55 243.956L291.216 276.039C291.478 276.22 291.547 276.58 291.365 276.846C291.252 277.009 291.071 277.098 290.887 277.098Z" fill="#33296E"/>
<path d="M268.256 325.506C268.143 325.506 268.027 325.472 267.927 325.404L207.843 283.906C207.581 283.725 207.515 283.362 207.696 283.099C207.878 282.836 208.24 282.77 208.503 282.952L268.587 324.45C268.85 324.631 268.915 324.994 268.734 325.257C268.621 325.42 268.44 325.506 268.256 325.506Z" fill="#33296E"/>
<path d="M271.555 327.554L207.938 284.027L270.987 334.451C289.441 347.138 312.698 344.229 325.228 325.543L325.532 319.019C312.884 334.622 289.885 340.157 271.555 327.557V327.554Z" fill="#33296E"/>
<path d="M292.068 183.578C299.14 183.578 304.873 177.841 304.873 170.764C304.873 163.688 299.14 157.951 292.068 157.951C284.995 157.951 279.262 163.688 279.262 170.764C279.262 177.841 284.995 183.578 292.068 183.578Z" fill="#33296E"/>
<path d="M261.803 157.951C266.563 157.951 270.422 154.09 270.422 149.327C270.422 144.564 266.563 140.703 261.803 140.703C257.043 140.703 253.185 144.564 253.185 149.327C253.185 154.09 257.043 157.951 261.803 157.951Z" fill="#33296E"/>
<path d="M266.343 179.494C266.35 172.86 260.981 167.476 254.352 167.469C247.722 167.462 242.342 172.835 242.335 179.469C242.328 186.103 247.697 191.486 254.326 191.493C260.956 191.5 266.336 186.128 266.343 179.494Z" fill="#33296E"/>
<path d="M277.324 175.648C284.397 175.648 290.13 169.911 290.13 162.834C290.13 155.758 284.397 150.021 277.324 150.021C270.252 150.021 264.519 155.758 264.519 162.834C264.519 169.911 270.252 175.648 277.324 175.648Z" fill="#33296E"/>
<path d="M250.772 169.595C257.213 169.595 262.434 164.37 262.434 157.924C262.434 151.479 257.213 146.254 250.772 146.254C244.331 146.254 239.109 151.479 239.109 157.924C239.109 164.37 244.331 169.595 250.772 169.595Z" fill="#33296E"/>
<path d="M264.017 177.333C271.089 177.333 276.822 171.596 276.822 164.519C276.822 157.442 271.089 151.706 264.017 151.706C256.944 151.706 251.211 157.442 251.211 164.519C251.211 171.596 256.944 177.333 264.017 177.333Z" fill="#33296E"/>
<path d="M260.687 224.422L275.995 265.559L281.386 269.263L284.6 195.774L261.985 194.783L260.687 224.422Z" fill="#FFE2CF"/>
<path d="M261.608 203.365L261.984 194.783L284.599 195.774L283.771 214.715C281.713 215.033 277.621 215.367 273.018 213.621C265.811 210.89 262.473 205.01 261.608 203.365Z" fill="#33296E"/>
<path d="M294.688 189.986C295.165 179.021 287.515 169.784 277.603 169.353C267.69 168.922 259.268 177.46 258.791 188.425C258.314 199.389 265.964 208.626 275.876 209.057C285.789 209.488 294.211 200.95 294.688 189.986Z" fill="#FFE2CF"/>
<path d="M276.596 209.647C276.346 209.647 276.094 209.642 275.842 209.631C270.109 209.379 266.382 208.278 261.929 202.952C261.724 202.708 261.756 202.34 262.003 202.135C262.25 201.93 262.616 201.964 262.821 202.209C267.018 207.232 270.383 208.23 275.894 208.472C280.523 208.675 284.965 206.869 288.403 203.386C291.857 199.888 293.881 195.12 294.107 189.963C294.572 179.336 287.157 170.349 277.582 169.931C271.434 169.663 265.714 172.912 262.282 178.626C262.116 178.9 261.761 178.989 261.485 178.823C261.212 178.658 261.123 178.303 261.286 178.027C264.884 172.034 271.142 168.486 277.629 168.77C287.846 169.216 295.755 178.747 295.263 190.01C295.024 195.456 292.882 200.495 289.226 204.198C285.743 207.728 281.283 209.644 276.596 209.644V209.647Z" fill="#33296E"/>
<path d="M277.605 169.35C267.693 168.917 257.839 176.473 257.358 187.437C257.316 188.422 258.77 190.373 258.854 191.327L275.807 177.301L294.185 184.28C292.335 175.987 285.735 169.71 277.605 169.353V169.35Z" fill="#33296E"/>
<path d="M268.467 194.184C268.711 196.176 269.563 198.111 271.056 199.675C274.383 203.16 279.685 203.602 283.523 200.939L268.467 194.186V194.184Z" fill="white"/>
<path d="M49.3467 132.347L132.781 105.122L191.672 170.236L107.123 201.651L49.3467 132.347Z" fill="#4C6FFF"/>
<path d="M195.096 95.5811L78.6904 64.5862L36.0577 224.699L152.463 255.694L195.096 95.5811Z" fill="#33296E"/>
<path d="M198.376 92.9141L81.9707 61.9192L39.338 222.032L155.744 253.027L198.376 92.9141Z" fill="#FFBD02"/>
<path d="M156.195 253.737L38.6689 222.45L81.5362 61.2004L199.062 92.4868L156.195 253.737ZM40.0857 221.628L155.372 252.317L197.645 93.3095L82.3589 62.6198L40.0883 221.628H40.0857Z" fill="#33296E"/>
<path d="M183.623 104.284L87.8857 79.2217L71.4666 141.941L167.204 167.004L183.623 104.284Z" fill="white"/>
<path d="M167.436 167.934L164.074 167.04C163.764 166.958 163.58 166.64 163.664 166.33C163.745 166.02 164.063 165.836 164.374 165.92L166.613 166.517L167.21 164.275C167.291 163.965 167.609 163.783 167.919 163.862C168.23 163.944 168.414 164.262 168.329 164.572L167.436 167.934Z" fill="#33296E"/>
<path d="M158.915 165.644C158.865 165.644 158.815 165.639 158.765 165.626L153.455 164.212C153.145 164.13 152.961 163.812 153.045 163.502C153.127 163.192 153.445 163.008 153.755 163.092L159.064 164.506C159.375 164.588 159.559 164.906 159.474 165.216C159.406 165.476 159.172 165.647 158.915 165.647V165.644ZM148.298 162.819C148.248 162.819 148.198 162.814 148.149 162.8L142.839 161.386C142.529 161.305 142.345 160.987 142.429 160.677C142.511 160.366 142.829 160.182 143.139 160.267L148.448 161.681C148.758 161.762 148.942 162.08 148.858 162.39C148.79 162.651 148.556 162.821 148.298 162.821V162.819ZM137.682 159.993C137.632 159.993 137.582 159.988 137.532 159.975L132.223 158.561C131.913 158.479 131.729 158.161 131.813 157.851C131.894 157.541 132.212 157.357 132.522 157.441L137.832 158.855C138.142 158.937 138.326 159.255 138.242 159.565C138.174 159.825 137.94 159.996 137.682 159.996V159.993ZM127.066 157.168C127.016 157.168 126.966 157.162 126.916 157.149L121.606 155.735C121.296 155.654 121.112 155.336 121.196 155.025C121.278 154.715 121.596 154.531 121.906 154.615L127.216 156.03C127.526 156.111 127.71 156.429 127.626 156.739C127.557 156.999 127.323 157.17 127.066 157.17V157.168ZM116.449 154.342C116.4 154.342 116.35 154.337 116.3 154.324L110.99 152.91C110.68 152.828 110.496 152.51 110.58 152.2C110.662 151.89 110.977 151.706 111.29 151.79L116.599 153.204C116.909 153.285 117.093 153.603 117.009 153.914C116.941 154.174 116.707 154.345 116.449 154.345V154.342ZM105.833 151.516C105.783 151.516 105.733 151.511 105.683 151.498L100.374 150.084C100.064 150.002 99.8798 149.684 99.9639 149.374C100.045 149.064 100.363 148.88 100.674 148.964L105.983 150.378C106.293 150.46 106.477 150.778 106.393 151.088C106.325 151.348 106.091 151.519 105.833 151.519V151.516ZM95.2169 148.691C95.167 148.691 95.117 148.686 95.0671 148.673L89.7576 147.258C89.4475 147.177 89.2635 146.859 89.3476 146.549C89.4291 146.239 89.7471 146.055 90.0573 146.139L95.3667 147.553C95.6769 147.634 95.8609 147.952 95.7768 148.262C95.7084 148.523 95.4745 148.694 95.2169 148.694V148.691ZM84.6006 145.865C84.5507 145.865 84.5007 145.86 84.4508 145.847L79.1413 144.433C78.8312 144.351 78.6472 144.033 78.7313 143.723C78.8128 143.413 79.1308 143.229 79.441 143.313L84.7505 144.727C85.0606 144.809 85.2446 145.127 85.1605 145.437C85.0921 145.697 84.8582 145.868 84.6006 145.868V145.865Z" fill="#33296E"/>
<path d="M73.9764 143.032C73.9265 143.032 73.8766 143.026 73.8266 143.013L70.4648 142.12L71.3585 138.758C71.44 138.448 71.758 138.264 72.0682 138.348C72.3784 138.429 72.5623 138.747 72.4782 139.057L71.8816 141.3L74.1236 141.896C74.4338 141.978 74.6178 142.296 74.5337 142.606C74.4653 142.866 74.2314 143.037 73.9738 143.037L73.9764 143.032Z" fill="#33296E"/>
<path d="M73.3058 134.268C73.2559 134.268 73.2059 134.263 73.156 134.25C72.8458 134.169 72.6619 133.851 72.746 133.54L74.1338 128.323C74.2153 128.013 74.5333 127.829 74.8435 127.91C75.1536 127.992 75.3376 128.31 75.2535 128.62L73.8657 133.837C73.7973 134.098 73.5634 134.268 73.3058 134.268ZM76.0788 123.836C76.0289 123.836 75.9789 123.831 75.929 123.818C75.6189 123.736 75.4349 123.418 75.519 123.108L76.9068 117.891C76.9883 117.58 77.3063 117.396 77.6165 117.481C77.9266 117.562 78.1106 117.88 78.0265 118.19L76.6387 123.408C76.5704 123.668 76.3364 123.839 76.0788 123.839V123.836ZM78.8518 113.404C78.8019 113.404 78.752 113.399 78.702 113.385C78.3919 113.304 78.2079 112.986 78.292 112.676L79.6798 107.458C79.7613 107.148 80.0819 106.964 80.3895 107.046C80.6996 107.127 80.8836 107.445 80.7995 107.755L79.4117 112.973C79.3434 113.233 79.1094 113.404 78.8518 113.404ZM81.6248 102.972C81.5749 102.972 81.525 102.966 81.475 102.953C81.1649 102.872 80.9809 102.554 81.065 102.243L82.4528 97.026C82.5343 96.7159 82.8523 96.5319 83.1625 96.6134C83.4726 96.6949 83.6566 97.0129 83.5725 97.3231L82.1847 102.541C82.1164 102.801 81.8824 102.972 81.6248 102.972ZM84.3979 92.5393C84.3479 92.5393 84.298 92.534 84.248 92.5209C83.9379 92.4394 83.7539 92.1214 83.838 91.8112L85.2258 86.5937C85.3073 86.2836 85.6253 86.0996 85.9355 86.1837C86.2456 86.2652 86.4296 86.5832 86.3455 86.8934L84.9577 92.1108C84.8894 92.3711 84.6554 92.5419 84.3979 92.5419V92.5393Z" fill="#33296E"/>
<path d="M87.174 82.1018C87.124 82.1018 87.0741 82.0966 87.0242 82.0834C86.714 82.0019 86.53 81.6839 86.6141 81.3737L87.5078 78.012L90.8696 78.9056C91.1797 78.9871 91.3637 79.3052 91.2796 79.6153C91.1981 79.9255 90.8827 80.1095 90.5699 80.0253L88.3305 79.4287L87.7338 81.6708C87.6655 81.931 87.4316 82.1018 87.174 82.1018Z" fill="#33296E"/>
<path d="M175.66 102.656C175.61 102.656 175.56 102.651 175.51 102.638L170.2 101.224C169.89 101.142 169.706 100.824 169.79 100.514C169.872 100.204 170.19 100.02 170.5 100.104L175.81 101.518C176.12 101.599 176.304 101.917 176.22 102.228C176.151 102.488 175.917 102.659 175.66 102.659V102.656ZM165.043 99.8305C164.994 99.8305 164.944 99.8252 164.894 99.8121L159.584 98.398C159.274 98.3165 159.09 97.9985 159.174 97.6883C159.256 97.3782 159.574 97.1942 159.884 97.2783L165.193 98.6924C165.503 98.7739 165.687 99.0919 165.603 99.4021C165.535 99.6623 165.301 99.8331 165.043 99.8331V99.8305ZM154.427 97.0049C154.377 97.0049 154.327 96.9997 154.277 96.9865L148.968 95.5724C148.658 95.4909 148.474 95.1729 148.558 94.8627C148.639 94.5526 148.957 94.3686 149.268 94.4527L154.577 95.8668C154.887 95.9483 155.071 96.2663 154.987 96.5765C154.919 96.8367 154.685 97.0075 154.427 97.0075V97.0049ZM143.811 94.1793C143.761 94.1793 143.711 94.1741 143.661 94.1609L138.352 92.7468C138.041 92.6654 137.857 92.3473 137.942 92.0372C138.023 91.727 138.338 91.543 138.651 91.6271L143.961 93.0412C144.271 93.1227 144.455 93.4408 144.371 93.7509C144.302 94.0111 144.068 94.182 143.811 94.182V94.1793ZM133.195 91.3538C133.145 91.3538 133.095 91.3485 133.045 91.3354L127.735 89.9213C127.425 89.8398 127.241 89.5217 127.325 89.2116C127.407 88.9014 127.725 88.7174 128.035 88.8016L133.344 90.2157C133.655 90.2971 133.839 90.6152 133.754 90.9253C133.686 91.1855 133.452 91.3564 133.195 91.3564V91.3538ZM122.578 88.5282C122.528 88.5282 122.478 88.5229 122.428 88.5098L117.119 87.0957C116.809 87.0142 116.625 86.6962 116.709 86.386C116.79 86.0759 117.109 85.8919 117.419 85.976L122.728 87.3901C123.038 87.4716 123.222 87.7896 123.138 88.0998C123.07 88.36 122.836 88.5308 122.578 88.5308V88.5282ZM111.962 85.7026C111.912 85.7026 111.862 85.6974 111.812 85.6842L106.503 84.2701C106.193 84.1886 106.009 83.8706 106.093 83.5604C106.174 83.2503 106.492 83.0663 106.802 83.1504L112.112 84.5645C112.422 84.646 112.606 84.964 112.522 85.2742C112.454 85.5344 112.22 85.7052 111.962 85.7052V85.7026ZM101.346 82.877C101.296 82.877 101.246 82.8718 101.196 82.8586L95.8865 81.4445C95.5763 81.3631 95.3923 81.045 95.4764 80.7349C95.5579 80.4247 95.8759 80.2407 96.1861 80.3248L101.496 81.7389C101.806 81.8204 101.99 82.1384 101.906 82.4486C101.837 82.7088 101.603 82.8797 101.346 82.8797V82.877Z" fill="#33296E"/>
<path d="M183.025 107.619C182.975 107.619 182.925 107.614 182.876 107.6C182.565 107.519 182.381 107.201 182.465 106.891L183.062 104.649L180.82 104.052C180.51 103.97 180.326 103.652 180.41 103.342C180.492 103.032 180.81 102.848 181.12 102.932L184.481 103.826L183.588 107.188C183.519 107.448 183.286 107.619 183.028 107.619H183.025Z" fill="#33296E"/>
<path d="M169.157 159.785C169.107 159.785 169.058 159.78 169.008 159.767C168.697 159.686 168.513 159.368 168.598 159.057L169.985 153.84C170.067 153.53 170.385 153.346 170.695 153.427C171.005 153.509 171.189 153.827 171.105 154.137L169.717 159.354C169.649 159.615 169.415 159.785 169.157 159.785ZM171.93 149.351C171.88 149.351 171.831 149.345 171.781 149.332C171.47 149.251 171.286 148.933 171.371 148.622L172.758 143.405C172.84 143.095 173.158 142.911 173.468 142.992C173.778 143.074 173.962 143.392 173.878 143.702L172.49 148.92C172.422 149.18 172.188 149.351 171.93 149.351ZM174.703 138.918C174.653 138.918 174.604 138.913 174.554 138.9C174.243 138.818 174.059 138.5 174.144 138.19L175.531 132.973C175.613 132.663 175.931 132.481 176.241 132.56C176.551 132.642 176.735 132.96 176.651 133.27L175.263 138.487C175.195 138.747 174.961 138.918 174.703 138.918ZM177.476 128.486C177.426 128.486 177.377 128.481 177.327 128.468C177.016 128.386 176.832 128.068 176.917 127.758L178.304 122.54C178.386 122.23 178.704 122.046 179.014 122.128C179.324 122.209 179.508 122.527 179.424 122.837L178.036 128.055C177.968 128.315 177.734 128.486 177.476 128.486ZM180.249 118.054C180.199 118.054 180.15 118.048 180.1 118.035C179.789 117.954 179.605 117.636 179.69 117.326L181.077 112.108C181.159 111.798 181.477 111.614 181.787 111.698C182.097 111.78 182.281 112.098 182.197 112.408L180.809 117.625C180.741 117.885 180.507 118.056 180.249 118.056V118.054Z" fill="#33296E"/>
<path d="M117.411 103.445L121.743 104.599L97.5641 125.466L93.2324 124.312L117.411 103.445ZM94.5098 110.045C93.6714 108.457 93.5373 106.594 94.1051 104.457C94.6728 102.32 95.7163 100.769 97.2303 99.8095C98.7469 98.8475 100.44 98.6162 102.308 99.113C104.177 99.6098 105.523 100.651 106.351 102.238C107.176 103.823 107.305 105.684 106.737 107.821C106.17 109.958 105.134 111.509 103.631 112.473C102.127 113.438 100.44 113.672 98.5708 113.175C96.702 112.678 95.3483 111.635 94.5098 110.047V110.045ZM101.583 109.685C102.237 109.13 102.742 108.186 103.097 106.851C103.452 105.516 103.483 104.443 103.192 103.639C102.9 102.832 102.34 102.32 101.515 102.102C100.713 101.889 99.977 102.062 99.3094 102.627C98.6391 103.19 98.1318 104.128 97.7823 105.44C97.4327 106.751 97.409 107.818 97.7113 108.638C98.0136 109.459 98.5629 109.976 99.3646 110.189C100.19 110.41 100.929 110.242 101.583 109.687V109.685ZM109.637 128.076C108.83 127.25 108.301 126.231 108.052 125.022C107.802 123.81 107.862 122.501 108.238 121.092C108.611 119.683 109.208 118.516 110.028 117.588C110.846 116.663 111.81 116.04 112.919 115.725C114.029 115.409 115.19 115.412 116.405 115.735C118.274 116.232 119.627 117.276 120.466 118.863C121.304 120.451 121.438 122.314 120.871 124.451C120.303 126.588 119.259 128.139 117.745 129.101C116.229 130.063 114.536 130.294 112.667 129.797C111.453 129.474 110.443 128.899 109.637 128.073V128.076ZM115.685 126.291C116.342 125.726 116.844 124.785 117.193 123.473C117.543 122.162 117.572 121.097 117.283 120.28C116.994 119.462 116.436 118.942 115.611 118.724C114.809 118.511 114.076 118.679 113.411 119.231C112.743 119.783 112.233 120.727 111.879 122.062C111.524 123.397 111.497 124.47 111.802 125.279C112.107 126.089 112.659 126.599 113.461 126.812C114.286 127.032 115.027 126.859 115.685 126.291Z" fill="#33296E"/>
<path d="M156.858 115.365C156.808 115.365 156.758 115.359 156.708 115.346L136.506 109.968C136.195 109.887 136.011 109.569 136.096 109.259C136.177 108.949 136.495 108.765 136.805 108.849L157.007 114.227C157.318 114.308 157.502 114.626 157.418 114.936C157.349 115.196 157.115 115.367 156.858 115.367V115.365Z" fill="#33296E"/>
<path d="M165.511 125.949C165.461 125.949 165.411 125.944 165.361 125.931L134.453 117.704C134.143 117.623 133.959 117.305 134.043 116.994C134.124 116.684 134.442 116.5 134.753 116.584L165.66 124.811C165.971 124.893 166.155 125.211 166.07 125.521C166.002 125.781 165.768 125.952 165.511 125.952V125.949Z" fill="#33296E"/>
<path d="M163.455 133.682C163.405 133.682 163.356 133.677 163.306 133.664L149.964 130.113C149.653 130.032 149.469 129.713 149.554 129.403C149.635 129.093 149.95 128.909 150.263 128.993L163.605 132.544C163.915 132.626 164.099 132.944 164.015 133.254C163.947 133.514 163.713 133.685 163.455 133.685V133.682Z" fill="#33296E"/>
<path d="M145.5 128.901C145.45 128.901 145.4 128.896 145.35 128.883L132.397 125.434C132.087 125.353 131.903 125.035 131.987 124.725C132.069 124.414 132.384 124.23 132.697 124.315L145.65 127.763C145.96 127.845 146.144 128.163 146.06 128.473C145.992 128.733 145.758 128.904 145.5 128.904V128.901Z" fill="#33296E"/>
<path d="M161.399 141.415C161.349 141.415 161.299 141.41 161.249 141.397L130.342 133.17C130.031 133.088 129.847 132.77 129.932 132.46C130.013 132.15 130.331 131.966 130.641 132.05L161.549 140.277C161.859 140.358 162.043 140.676 161.959 140.987C161.891 141.247 161.657 141.418 161.399 141.418V141.415Z" fill="#33296E"/>
<path d="M16 230.859L153.016 267.333L177.873 173.832L171.628 197.33L97.9181 204.834L54.5593 141.005L40.8572 137.357L16 230.859Z" fill="#33296E"/>
<path d="M55.4865 234.102L24.4893 225.849L49.2597 132.673L108.92 194.886L191.585 170.559L166.814 263.738L55.4865 234.102Z" fill="white"/>
<path d="M166.815 264.316C166.765 264.316 166.715 264.311 166.665 264.298L24.3425 226.409C24.0324 226.327 23.8484 226.009 23.9325 225.699L48.7871 132.197C48.8396 131.995 49 131.837 49.2023 131.785C49.4047 131.732 49.6203 131.795 49.7648 131.948L109.094 194.229L191.504 169.679C191.706 169.618 191.922 169.671 192.074 169.818C192.224 169.965 192.284 170.181 192.229 170.383L167.372 263.885C167.333 264.035 167.235 264.161 167.101 264.237C167.012 264.29 166.912 264.316 166.809 264.316H166.815ZM25.1994 225.439L166.402 263.028L190.844 171.088L109.086 195.443C108.876 195.503 108.65 195.443 108.5 195.288L49.6413 133.496L25.1994 225.439Z" fill="#33296E"/>
<path d="M117.398 346.878L156.859 309.693L121.197 408.502L117.398 346.878Z" fill="#4C6FFF"/>
<path d="M115.803 344.949L155.437 307.948L54.8359 336.948L115.803 344.949Z" fill="#4C6FFF"/>
<path d="M102.988 355.071C102.762 355.071 102.547 354.937 102.452 354.713C102.329 354.419 102.468 354.077 102.765 353.956C103.843 353.509 104.933 353.073 106.011 352.66C106.311 352.547 106.645 352.697 106.76 352.994C106.876 353.294 106.726 353.628 106.426 353.743C105.359 354.151 104.279 354.582 103.212 355.026C103.138 355.058 103.065 355.071 102.988 355.071Z" fill="#6155FF"/>
<path d="M80.1764 498.442C79.8715 498.442 79.6165 498.205 79.5981 497.898C79.5797 497.577 79.8216 497.304 80.1422 497.283C82.4815 497.141 84.7867 496.799 86.9893 496.265C87.2995 496.189 87.6149 496.381 87.6885 496.694C87.7647 497.004 87.5728 497.319 87.26 497.393C84.9891 497.942 82.6182 498.295 80.2106 498.442C80.1974 498.442 80.1869 498.442 80.1738 498.442H80.1764ZM73.1506 498.297C73.1322 498.297 73.1111 498.297 73.0927 498.295C70.7639 498.063 68.4062 497.648 66.0853 497.062C65.7752 496.983 65.5859 496.668 65.6648 496.357C65.7436 496.047 66.059 495.861 66.3692 495.937C68.6323 496.507 70.9348 496.912 73.2084 497.138C73.5264 497.17 73.7604 497.454 73.7288 497.772C73.6999 498.071 73.4476 498.295 73.1532 498.295L73.1506 498.297ZM93.7628 495.117C93.542 495.117 93.3344 494.991 93.2345 494.778C93.1005 494.486 93.2292 494.142 93.521 494.01C94.4094 493.603 95.2873 493.153 96.1337 492.675C97.2271 492.057 98.3416 491.319 99.4482 490.486C99.7031 490.294 100.068 490.344 100.26 490.601C100.452 490.856 100.402 491.221 100.145 491.413C98.9987 492.278 97.8395 493.04 96.7014 493.684C95.8261 494.178 94.9193 494.644 94.002 495.064C93.9232 495.101 93.8417 495.117 93.7602 495.117H93.7628ZM59.5484 494.883C59.4748 494.883 59.4012 494.87 59.3302 494.841C57.1302 493.942 54.9854 492.883 52.9536 491.692C52.6776 491.532 52.583 491.174 52.746 490.898C52.9063 490.622 53.2611 490.528 53.5397 490.691C55.5242 491.852 57.6217 492.888 59.7692 493.766C60.0662 493.887 60.2081 494.226 60.0872 494.523C59.9952 494.746 59.7797 494.883 59.551 494.883H59.5484ZM47.4654 487.778C47.3366 487.778 47.2052 487.736 47.0974 487.647C45.2838 486.151 43.5832 484.461 42.0429 482.616C41.8379 482.372 41.8695 482.004 42.1165 481.799C42.361 481.594 42.7263 481.625 42.934 481.872C44.4296 483.662 46.0802 485.302 47.8386 486.751C48.0857 486.956 48.1199 487.321 47.9175 487.568C47.8019 487.707 47.6363 487.778 47.4707 487.778H47.4654ZM105.018 486.821C104.876 486.821 104.731 486.769 104.621 486.664C104.387 486.443 104.376 486.078 104.597 485.844C106.161 484.185 107.641 482.374 108.992 480.461C109.176 480.2 109.539 480.137 109.799 480.321C110.062 480.505 110.122 480.868 109.938 481.128C108.556 483.086 107.042 484.942 105.441 486.64C105.328 486.761 105.173 486.821 105.02 486.821H105.018ZM38.4656 477.062C38.2659 477.062 38.0714 476.957 37.9636 476.773C36.8728 474.886 35.9134 472.888 35.1117 470.835L34.9199 470.339C34.8042 470.039 34.954 469.705 35.2537 469.589C35.5533 469.476 35.8871 469.624 36.0028 469.923L36.192 470.412C36.9727 472.412 37.9058 474.357 38.965 476.192C39.1254 476.468 39.0307 476.823 38.7521 476.983C38.6601 477.036 38.5602 477.062 38.463 477.062H38.4656ZM113.108 475.361C113.019 475.361 112.929 475.34 112.845 475.298C112.561 475.151 112.448 474.802 112.593 474.518C113.673 472.412 114.58 470.262 115.285 468.12C115.384 467.815 115.713 467.65 116.018 467.752C116.323 467.852 116.486 468.181 116.386 468.485C115.66 470.683 114.73 472.891 113.623 475.049C113.521 475.248 113.318 475.364 113.108 475.364V475.361ZM33.2744 464.025C33.0195 464.025 32.7856 463.857 32.7146 463.599C32.089 461.315 31.5791 458.986 31.1927 456.676C31.1401 456.36 31.3531 456.061 31.6685 456.008C31.9865 455.956 32.2835 456.169 32.3361 456.484C32.7146 458.755 33.2166 461.044 33.8317 463.292C33.9158 463.599 33.7344 463.92 33.4243 464.004C33.3743 464.017 33.3218 464.025 33.2718 464.025H33.2744ZM117.437 462.038C117.411 462.038 117.385 462.038 117.358 462.033C117.04 461.991 116.82 461.699 116.862 461.381C117.059 459.935 117.156 458.489 117.156 457.086C117.156 456.216 117.117 455.343 117.043 454.494C117.014 454.176 117.251 453.895 117.569 453.866C117.889 453.837 118.168 454.074 118.197 454.392C118.276 455.275 118.315 456.182 118.315 457.086C118.315 458.542 118.213 460.04 118.01 461.538C117.971 461.83 117.721 462.04 117.437 462.04V462.038ZM30.9772 450.173C30.6723 450.173 30.4173 449.937 30.3989 449.629C30.3174 448.27 30.2754 446.893 30.2754 445.531C30.2754 444.538 30.299 443.531 30.3411 442.537C30.3542 442.217 30.646 441.967 30.9456 441.983C31.2663 441.996 31.5134 442.267 31.5002 442.587C31.4582 443.563 31.4372 444.553 31.4345 445.531C31.4345 446.869 31.4766 448.225 31.5554 449.558C31.5738 449.879 31.332 450.152 31.0114 450.17C30.9982 450.17 30.9877 450.17 30.9746 450.17L30.9772 450.173ZM116.194 448.149C115.947 448.149 115.716 447.989 115.639 447.739C114.927 445.426 114.047 443.273 113.019 441.344C112.869 441.063 112.977 440.711 113.258 440.561C113.542 440.411 113.891 440.516 114.041 440.8C115.103 442.795 116.013 445.016 116.746 447.4C116.841 447.705 116.667 448.031 116.362 448.126C116.304 448.144 116.249 448.152 116.191 448.152L116.194 448.149ZM31.5844 436.148C31.5554 436.148 31.5292 436.148 31.5002 436.142C31.1822 436.095 30.964 435.803 31.0087 435.485C31.3452 433.178 31.8025 430.841 32.3703 428.533C32.4465 428.223 32.7619 428.034 33.0721 428.107C33.3822 428.184 33.5741 428.499 33.4979 428.809C32.9406 431.08 32.4885 433.383 32.1574 435.651C32.1153 435.94 31.8682 436.148 31.5844 436.148ZM109.515 435.901C109.357 435.901 109.2 435.838 109.087 435.711C107.52 433.995 105.741 432.536 103.798 431.374C103.522 431.212 103.433 430.854 103.598 430.581C103.761 430.305 104.119 430.215 104.392 430.381C106.432 431.601 108.301 433.13 109.941 434.931C110.156 435.167 110.141 435.533 109.904 435.751C109.794 435.853 109.652 435.903 109.512 435.903L109.515 435.901ZM34.9225 422.506C34.8594 422.506 34.7963 422.496 34.7332 422.475C34.431 422.369 34.268 422.041 34.3731 421.739C35.1275 419.544 35.9975 417.328 36.9595 415.149C37.0883 414.857 37.4326 414.723 37.7244 414.852C38.0162 414.981 38.1502 415.323 38.0214 415.617C37.0725 417.767 36.2157 419.954 35.4692 422.117C35.3851 422.356 35.1617 422.509 34.9199 422.509L34.9225 422.506ZM40.5815 409.642C40.4895 409.642 40.3949 409.621 40.3082 409.574C40.0269 409.422 39.9218 409.072 40.0716 408.788C41.1677 406.746 42.3715 404.693 43.6463 402.682C43.8171 402.412 44.1746 402.333 44.4453 402.504C44.7161 402.674 44.7949 403.032 44.6241 403.303C43.365 405.29 42.1744 407.319 41.0914 409.338C40.9863 409.532 40.7865 409.642 40.5815 409.642ZM48.1015 397.762C47.9832 397.762 47.8623 397.725 47.7598 397.649C47.5022 397.46 47.4444 397.097 47.6336 396.839C49.0031 394.968 50.4671 393.091 51.9863 391.267C52.1914 391.02 52.5567 390.988 52.8038 391.193C53.0509 391.398 53.0824 391.764 52.8774 392.011C51.3739 393.819 49.923 395.675 48.5694 397.528C48.4563 397.683 48.2802 397.765 48.1015 397.765V397.762ZM57.0908 386.943C56.9488 386.943 56.8069 386.891 56.6939 386.788C56.46 386.57 56.4468 386.202 56.6676 385.968C58.2552 384.27 59.9295 382.58 61.638 380.945C61.8693 380.724 62.2373 380.732 62.4581 380.964C62.6788 381.195 62.671 381.563 62.4397 381.784C60.7443 383.405 59.0884 385.08 57.514 386.762C57.4009 386.883 57.2459 386.946 57.0908 386.946V386.943ZM67.2523 377.218C67.0894 377.218 66.9264 377.15 66.8134 377.016C66.6057 376.774 66.632 376.406 66.8738 376.198C68.6454 374.676 70.488 373.173 72.3489 371.735C72.6012 371.541 72.9666 371.585 73.1611 371.84C73.3582 372.093 73.3109 372.458 73.0559 372.652C71.2108 374.08 69.384 375.567 67.6256 377.079C67.5152 377.173 67.3811 377.218 67.2471 377.218H67.2523ZM78.3785 368.612C78.1946 368.612 78.0158 368.526 77.9028 368.363C77.7214 368.1 77.7845 367.737 78.0474 367.556C79.9766 366.215 81.9637 364.909 83.9508 363.674C84.2216 363.505 84.579 363.587 84.7499 363.86C84.9181 364.131 84.8366 364.488 84.5633 364.659C82.5919 365.884 80.6232 367.18 78.7097 368.507C78.6098 368.578 78.4942 368.61 78.3785 368.61V368.612ZM90.3248 361.19C90.1198 361.19 89.9227 361.082 89.8175 360.89C89.6624 360.609 89.765 360.257 90.0462 360.102C92.1148 358.961 94.2254 357.867 96.3229 356.853C96.6094 356.714 96.959 356.834 97.0983 357.121C97.2376 357.41 97.1167 357.754 96.8302 357.896C94.7537 358.9 92.6615 359.986 90.6087 361.116C90.5193 361.166 90.4247 361.19 90.3301 361.19H90.3248Z" fill="#6155FF"/>
<path d="M97.5716 428.78C97.5242 428.78 97.4769 428.775 97.4296 428.762C96.3441 428.491 95.2191 428.289 94.0862 428.163C93.7682 428.128 93.5395 427.842 93.5737 427.521C93.6079 427.203 93.897 426.975 94.2124 427.009C95.3978 427.14 96.5727 427.35 97.7082 427.634C98.0184 427.713 98.2076 428.026 98.1314 428.336C98.0657 428.599 97.8291 428.775 97.5689 428.775L97.5716 428.78Z" fill="#6155FF"/>
<path d="M440.302 193.109L429.107 198.999L431.244 186.522L422.187 177.688L434.703 175.869L440.302 164.519L445.9 175.869L458.417 177.688L449.359 186.522L451.496 198.999L440.302 193.109Z" fill="#4C6FFF"/>
<path d="M429.107 199.577C428.987 199.577 428.868 199.541 428.766 199.467C428.587 199.338 428.498 199.117 428.534 198.899L430.621 186.724L421.782 178.103C421.624 177.948 421.566 177.719 421.635 177.509C421.703 177.299 421.884 177.146 422.103 177.115L434.317 175.338L439.779 164.262C439.973 163.865 440.623 163.865 440.817 164.262L446.279 175.338L458.493 177.115C458.712 177.146 458.893 177.299 458.961 177.509C459.03 177.719 458.972 177.948 458.814 178.103L449.975 186.724L452.062 198.899C452.098 199.117 452.009 199.335 451.83 199.467C451.652 199.596 451.415 199.614 451.221 199.512L440.294 193.763L429.37 199.512C429.286 199.556 429.192 199.577 429.1 199.577H429.107ZM440.302 192.528C440.394 192.528 440.489 192.549 440.573 192.594L450.729 197.937L448.789 186.619C448.758 186.43 448.818 186.241 448.955 186.107L457.171 178.092L445.816 176.442C445.627 176.415 445.464 176.295 445.38 176.124L440.302 165.828L435.224 176.124C435.14 176.295 434.977 176.413 434.787 176.442L423.433 178.092L431.649 186.107C431.786 186.241 431.849 186.432 431.815 186.619L429.875 197.937L440.029 192.594C440.113 192.549 440.205 192.528 440.299 192.528H440.302Z" fill="#33296E"/>
<path d="M468.787 237.159L458.639 242.497L460.578 231.19L452.367 223.181L463.714 221.533L468.787 211.245L473.86 221.533L485.207 223.181L476.996 231.19L478.935 242.497L468.787 237.159Z" fill="#4C6FFF"/>
<path d="M478.935 243.078C478.843 243.078 478.751 243.057 478.664 243.013L468.787 237.816L458.909 243.013C458.714 243.115 458.478 243.099 458.299 242.968C458.12 242.839 458.031 242.618 458.068 242.4L459.955 231.392L451.965 223.596C451.807 223.441 451.749 223.213 451.817 223.002C451.886 222.792 452.067 222.64 452.285 222.608L463.33 221.002L468.269 210.988C468.463 210.591 469.113 210.591 469.307 210.988L474.246 221.002L485.291 222.608C485.509 222.64 485.69 222.792 485.758 223.002C485.827 223.213 485.769 223.441 485.611 223.596L477.618 231.392L479.505 242.4C479.542 242.618 479.453 242.836 479.274 242.968C479.172 243.041 479.053 243.078 478.932 243.078H478.935ZM468.787 236.581C468.879 236.581 468.973 236.602 469.057 236.646L478.165 241.438L476.425 231.29C476.393 231.1 476.454 230.911 476.59 230.777L483.961 223.588L473.778 222.109C473.589 222.082 473.426 221.961 473.342 221.791L468.787 212.557L464.232 221.791C464.147 221.961 463.984 222.08 463.795 222.109L453.613 223.588L460.983 230.777C461.119 230.911 461.183 231.103 461.148 231.29L459.408 241.438L468.516 236.646C468.6 236.602 468.692 236.581 468.787 236.581Z" fill="#33296E"/>
<path d="M460.895 324.642L453.759 328.398L455.123 320.444L449.349 314.814L457.329 313.655L460.895 306.421L464.462 313.655L472.44 314.814L466.667 320.444L468.032 328.398L460.895 324.642Z" fill="#4C6FFF"/>
<path d="M468.032 328.976C467.94 328.976 467.848 328.955 467.761 328.91L460.896 325.298L454.03 328.91C453.836 329.012 453.599 328.997 453.421 328.865C453.242 328.736 453.153 328.516 453.189 328.298L454.501 320.646L448.947 315.229C448.789 315.074 448.731 314.845 448.8 314.635C448.868 314.425 449.049 314.272 449.268 314.241L456.943 313.124L460.375 306.163C460.57 305.766 461.219 305.766 461.414 306.163L464.846 313.124L472.524 314.241C472.742 314.272 472.924 314.425 472.992 314.635C473.06 314.845 473.002 315.074 472.845 315.229L467.288 320.646L468.6 328.298C468.637 328.516 468.547 328.734 468.369 328.865C468.266 328.939 468.148 328.976 468.027 328.976H468.032ZM450.595 315.218L455.529 320.028C455.665 320.162 455.728 320.354 455.694 320.541L454.53 327.333L460.625 324.126C460.793 324.037 460.996 324.037 461.164 324.126L467.259 327.333L466.095 320.541C466.063 320.352 466.124 320.162 466.261 320.028L471.194 315.218L464.379 314.227C464.189 314.201 464.026 314.08 463.942 313.909L460.893 307.73L457.844 313.909C457.76 314.08 457.597 314.199 457.408 314.227L450.592 315.218H450.595Z" fill="#33296E"/>
<path d="M466.815 283.948L457.886 288.645L459.592 278.696L452.366 271.649L462.349 270.196L466.815 261.143L471.28 270.196L481.263 271.649L474.04 278.696L475.744 288.645L466.815 283.948Z" fill="#4C6FFF"/>
<path d="M475.743 289.226C475.651 289.226 475.559 289.205 475.473 289.16L466.815 284.605L458.154 289.16C457.959 289.263 457.723 289.247 457.544 289.115C457.365 288.987 457.276 288.766 457.313 288.548L458.966 278.899L451.959 272.065C451.801 271.91 451.743 271.681 451.812 271.471C451.88 271.26 452.061 271.108 452.279 271.076L461.96 269.667L466.289 260.888C466.386 260.691 466.589 260.565 466.809 260.565C467.03 260.565 467.233 260.691 467.33 260.888L471.659 269.667L481.342 271.076C481.56 271.108 481.742 271.26 481.81 271.471C481.878 271.681 481.82 271.91 481.663 272.065L474.655 278.899L476.309 288.548C476.345 288.766 476.256 288.984 476.077 289.115C475.975 289.189 475.856 289.226 475.736 289.226H475.743ZM453.609 272.054L459.994 278.281C460.131 278.415 460.194 278.607 460.159 278.793L458.653 287.586L466.544 283.435C466.712 283.346 466.915 283.346 467.083 283.435L474.973 287.586L473.467 278.793C473.436 278.604 473.496 278.415 473.633 278.281L480.017 272.054L471.196 270.771C471.007 270.745 470.844 270.624 470.76 270.453L466.815 262.455L462.869 270.453C462.785 270.624 462.622 270.743 462.433 270.771L453.612 272.054H453.609Z" fill="#33296E"/>
<path d="M297.29 84.3545L274.565 94.1718L272.743 114.834L256.368 102.031L234.068 111.664L211.088 58.3855L274.307 31.0786L297.29 84.3545Z" fill="white"/>
<path d="M272.744 115.412C272.617 115.412 272.491 115.37 272.386 115.289L256.284 102.698L234.3 112.195C234.158 112.255 234 112.258 233.856 112.203C233.714 112.145 233.598 112.035 233.538 111.893L210.557 58.6141C210.431 58.3197 210.565 57.978 210.859 57.8519L274.079 30.545C274.221 30.4845 274.378 30.4819 274.523 30.5371C274.665 30.5949 274.781 30.7053 274.841 30.8472L297.824 84.1258C297.95 84.4202 297.816 84.7619 297.522 84.888L275.114 94.566L273.322 114.884C273.303 115.097 273.169 115.281 272.975 115.365C272.901 115.396 272.822 115.412 272.744 115.412ZM256.371 101.452C256.497 101.452 256.623 101.495 256.728 101.576L272.263 113.719L273.992 94.1218C274.01 93.9089 274.144 93.7249 274.339 93.6408L296.531 84.0548L274.005 31.8408L211.848 58.6903L234.371 110.904L256.137 101.502C256.211 101.471 256.289 101.455 256.366 101.455L256.371 101.452Z" fill="#33296E"/>
<path d="M256.934 54.0957C253.085 55.7569 250.786 59.5051 250.77 63.4451C247.894 60.751 243.592 59.8599 239.744 61.5211C234.565 63.7579 232.181 69.7691 234.416 74.9524C235.869 78.3247 238.04 79.8624 242.125 81.7654L262.461 90.5523L270.021 69.7166C271.44 65.4375 271.808 62.8011 270.354 59.4288C268.12 54.2482 262.112 51.8616 256.934 54.0984V54.0957Z" fill="#68DBF2"/>
</svg>
