<svg width="423" height="286" viewBox="0 0 423 286" fill="none" xmlns="http://www.w3.org/2000/svg">
<g clip-path="url(#clip0_35_39783)">
<rect width="423" height="286" rx="4" fill="#EAEEFF"/>
<g clip-path="url(#clip1_35_39783)">
<path d="M402.909 83.7933C402.732 83.7584 402.557 83.7261 402.38 83.6912C401.971 83.6132 401.514 83.6159 401.149 83.8525C401.041 83.9358 400.934 84.0191 400.826 84.1024C400.67 84.2475 400.56 84.4195 400.496 84.6157C400.423 84.7394 400.388 84.8738 400.385 85.0189C400.337 85.2312 400.348 85.4436 400.415 85.6559C400.544 86.0563 400.786 86.3869 401.149 86.61C401.299 86.7041 401.45 86.7955 401.603 86.8895C401.995 87.1314 402.471 87.161 402.909 87.0615C403.197 86.9809 403.447 86.8358 403.656 86.6261C403.82 86.4729 403.938 86.2902 404.006 86.0805C404.11 85.879 404.162 85.6613 404.151 85.4274C404.159 85.1936 404.11 84.9759 404.006 84.7743C403.938 84.5647 403.82 84.3819 403.656 84.2287C403.444 84.0191 403.197 83.874 402.909 83.7933Z" fill="#33296E"/>
<path d="M336.938 231.817C345.729 221.939 362.132 218.811 375.334 218.085C388.535 217.36 402.321 217.849 414.275 212.194C408.782 225.885 394.827 234.958 380.3 237.517C365.771 240.076 350.774 236.934 336.938 231.819V231.817Z" fill="#68DBF2"/>
<path d="M336.269 225.151C346.684 220.983 356.131 214.586 364.008 206.614C371.848 198.68 378.129 189.222 382.349 178.896C384.728 173.075 386.426 166.982 387.37 160.765C387.461 160.166 386.544 159.908 386.453 160.513C384.792 171.484 380.755 182.019 374.858 191.407C368.986 200.753 361.278 208.974 352.266 215.357C347.216 218.932 341.76 221.937 336.016 224.237C335.454 224.463 335.699 225.382 336.269 225.154V225.151Z" fill="#33296E"/>
<path d="M393.062 114.113C388.724 118.908 385.719 124.778 384.123 131.029C382.518 137.31 382.306 143.922 383.381 150.311C383.994 153.95 385.047 157.495 386.504 160.884C386.66 161.249 387.141 161.134 387.324 160.884C391.132 155.745 393.801 149.821 395.317 143.613C396.849 137.332 397.236 130.774 396.556 124.35C396.174 120.746 395.465 117.18 394.432 113.705C394.333 113.371 393.89 113.229 393.637 113.495C393.443 113.699 393.253 113.906 393.062 114.113C392.65 114.565 393.32 115.236 393.734 114.785C393.924 114.578 394.115 114.371 394.309 114.167C394.043 114.097 393.779 114.027 393.513 113.957C397.12 126.084 396.819 139.595 391.758 151.276C390.358 154.506 388.598 157.573 386.501 160.403H387.321C384.811 154.568 383.588 148.198 383.663 141.85C383.735 135.555 385.09 129.237 387.84 123.558C389.382 120.373 391.355 117.408 393.731 114.782C394.139 114.331 393.47 113.656 393.059 114.11L393.062 114.113Z" fill="#33296E"/>
<path d="M366.28 143.903C373.483 151.799 378.084 162.004 379.307 172.618C379.648 175.577 379.726 178.56 379.543 181.53C379.782 181.393 380.019 181.256 380.258 181.119C375.923 179.025 374.415 173.876 373.02 169.653C371.206 164.16 369.714 158.559 368.559 152.89C367.908 149.703 367.365 146.496 366.925 143.274C366.658 143.427 366.395 143.583 366.129 143.736L366.277 143.898C366.691 144.349 367.363 143.674 366.949 143.226C366.9 143.172 366.849 143.118 366.801 143.064C366.443 142.675 365.949 143.102 366.005 143.527C366.814 149.448 367.975 155.317 369.494 161.096C370.244 163.948 371.077 166.778 371.996 169.581C372.773 171.949 373.544 174.354 374.692 176.572C375.848 178.805 377.474 180.823 379.774 181.936C380.108 182.097 380.465 181.901 380.489 181.525C381.156 170.675 378.272 159.68 372.483 150.488C370.857 147.908 369.002 145.475 366.946 143.223C366.532 142.769 365.863 143.443 366.274 143.895L366.28 143.903Z" fill="#33296E"/>
<path d="M413.765 166.907C414.136 166.396 414.501 165.88 414.861 165.361C415.066 165.066 414.794 164.633 414.45 164.647C402.915 165.114 392 170.643 383.95 178.778C381.682 181.071 379.639 183.584 377.847 186.264C377.691 186.497 377.833 186.919 378.132 186.962C383.73 187.774 389.245 186.258 394.247 183.788C399.273 181.307 403.874 178.026 407.798 174.024C409.97 171.812 411.94 169.412 413.767 166.907C414.128 166.412 413.305 165.937 412.948 166.428C409.8 170.739 406.169 174.755 401.899 177.98C397.625 181.208 392.677 183.987 387.487 185.39C384.525 186.191 381.432 186.489 378.384 186.046C378.478 186.28 378.572 186.511 378.669 186.745C384.886 177.445 394.37 170.151 405.18 167.09C408.204 166.232 411.314 165.724 414.453 165.598C414.316 165.359 414.179 165.122 414.042 164.883C413.681 165.402 413.316 165.918 412.945 166.428C412.585 166.923 413.41 167.399 413.765 166.907Z" fill="#33296E"/>
<path d="M356.792 171.72C362.006 179.082 364.841 188.021 364.884 197.038C364.895 199.586 364.683 202.131 364.245 204.644C364.441 204.534 364.634 204.424 364.83 204.314C360.587 203.435 359.186 198.557 358.17 194.931C356.81 190.077 356.23 185.019 356.442 179.982C356.56 177.122 356.945 174.282 357.576 171.489C357.286 171.527 356.999 171.564 356.708 171.602C356.738 171.642 356.767 171.683 356.794 171.723C357.146 172.217 357.972 171.742 357.614 171.244C357.584 171.204 357.555 171.164 357.528 171.123C357.308 170.814 356.757 170.806 356.66 171.236C355.483 176.448 355.158 181.842 355.722 187.155C355.999 189.76 356.477 192.343 357.168 194.869C357.756 197.022 358.428 199.242 359.528 201.199C360.638 203.179 362.307 204.76 364.58 205.23C364.814 205.278 365.118 205.163 365.166 204.899C366.752 195.834 365.457 186.373 361.568 178.036C360.458 175.658 359.135 173.387 357.617 171.244C357.267 170.75 356.442 171.223 356.797 171.723L356.792 171.72Z" fill="#33296E"/>
<path d="M401.246 195.764C401.695 195.224 402.127 194.67 402.549 194.106C402.77 193.807 402.469 193.388 402.138 193.391C390.99 193.463 379.793 196.398 370.053 201.827C367.335 203.343 364.742 205.066 362.293 206.982C362 207.211 362.191 207.689 362.503 207.778C373.256 210.753 385.332 208.283 394.433 201.948C396.959 200.188 399.268 198.124 401.248 195.764C401.638 195.299 400.972 194.622 400.577 195.092C393.599 203.397 382.618 208.076 371.837 208.074C368.768 208.074 365.715 207.679 362.756 206.859C362.825 207.125 362.895 207.388 362.965 207.654C371.577 200.919 382.115 196.705 392.89 195.065C395.951 194.6 399.045 194.361 402.138 194.34C402.001 194.1 401.864 193.864 401.727 193.625C401.356 194.125 400.969 194.611 400.574 195.089C400.187 195.557 400.856 196.232 401.246 195.761V195.764Z" fill="#33296E"/>
<path d="M346.296 220.047C351.844 224.805 359.92 226.877 367.102 225.737C369.083 225.423 371.012 224.821 372.794 223.896C373.144 223.713 373.055 223.275 372.794 223.076C367.045 218.677 359.539 216.801 352.381 217.763C350.371 218.034 348.401 218.531 346.506 219.254C345.939 219.469 346.186 220.389 346.759 220.171C353.322 217.669 360.831 217.948 367.223 220.846C369.032 221.665 370.738 222.692 372.313 223.899V223.079C366.089 226.31 358.042 225.439 351.873 222.515C350.113 221.681 348.447 220.647 346.966 219.378C346.503 218.983 345.829 219.652 346.294 220.05L346.296 220.047Z" fill="#33296E"/>
<path d="M364.57 203.919C361.656 195.963 359.638 187.677 358.619 179.265C358.332 176.892 358.122 174.51 357.988 172.124C357.953 171.516 357.001 171.511 357.036 172.124C357.517 180.63 358.966 189.08 361.369 197.256C362.054 199.586 362.817 201.89 363.653 204.169C363.863 204.739 364.782 204.491 364.57 203.916V203.919Z" fill="#33296E"/>
<path d="M378.494 186.914C387.614 180.727 396.808 174.575 406.573 169.436C409.231 168.038 411.932 166.721 414.689 165.531C415.248 165.289 414.765 164.469 414.211 164.711C404.095 169.078 394.682 174.994 385.515 181.057C383.004 182.718 380.508 184.403 378.016 186.094C377.513 186.435 377.987 187.26 378.494 186.914Z" fill="#33296E"/>
<path d="M387.388 160.639C387.533 154.597 388.253 148.569 389.129 142.594C390.07 136.187 391.228 129.811 392.481 123.458C393.107 120.286 393.76 117.117 394.429 113.954C394.556 113.357 393.639 113.102 393.513 113.701C392.26 119.641 391.059 125.594 389.984 131.569C388.836 137.947 387.818 144.357 387.127 150.805C386.777 154.073 386.514 157.355 386.436 160.642C386.423 161.254 387.371 161.254 387.388 160.642V160.639Z" fill="#33296E"/>
<path d="M347.896 220.233C352.005 219.59 356.085 220.735 360.007 221.856C363.904 222.972 367.887 224.149 371.986 223.869C372.593 223.829 372.598 222.878 371.986 222.918C363.635 223.488 356.045 218.002 347.646 219.314C347.044 219.408 347.299 220.324 347.899 220.23L347.896 220.233Z" fill="#33296E"/>
<path d="M336.462 232.177C344.28 231.034 352.365 231.989 359.724 234.859C366.529 237.512 372.611 241.877 377.401 247.381C380.048 250.426 382.279 253.821 384.036 257.452C384.131 257.218 384.225 256.987 384.321 256.753C377.29 258.282 369.94 257.943 363.019 256.022C356.125 254.108 349.645 250.636 344.297 245.876C341.27 243.183 338.62 240.089 336.462 236.66C336.137 236.144 335.314 236.619 335.642 237.138C339.564 243.366 345.071 248.504 351.432 252.178C357.773 255.842 364.951 258.067 372.259 258.562C376.382 258.841 380.534 258.545 384.571 257.667C384.891 257.597 384.98 257.229 384.856 256.968C381.674 250.399 376.933 244.639 371.138 240.207C364.916 235.45 357.485 232.362 349.736 231.244C345.245 230.596 340.7 230.602 336.212 231.258C335.61 231.346 335.865 232.263 336.465 232.174L336.462 232.177Z" fill="#33296E"/>
<path d="M359.592 121.206C364.537 121.206 364.545 113.522 359.592 113.522C354.639 113.522 354.639 121.206 359.592 121.206Z" fill="#33296E"/>
<path d="M279.163 99.7179C279.163 99.7179 278.083 96.103 265.857 96.103C253.63 96.103 244.033 104.765 244.033 104.765L267.969 112.213L283.176 110.584L279.161 99.7179H279.163Z" fill="#F2F2F2"/>
<path d="M224.432 118.491C219.866 116.475 215.052 115.519 210.308 115.519C197.515 115.519 185.211 122.458 179.505 134.206L143.95 207.391C137.029 221.644 142.049 238.378 155.004 247.201V247.207C156.687 248.349 158.501 249.362 160.441 250.219C177.325 257.675 197.547 250.604 205.368 234.505L207.236 230.664L240.921 161.319C248.742 145.22 241.324 125.947 224.435 118.491H224.432Z" fill="#4C6FFF"/>
<path d="M150.838 244.492L155.001 247.155C156.684 248.354 158.498 249.418 160.439 250.316C177.322 258.137 197.545 250.719 205.366 233.83L207.234 229.801L198.81 158.053C197.631 158.306 171.66 250.456 150.835 244.492H150.838Z" fill="#33296E"/>
<path d="M84.2246 138.689C83.1468 137.394 83.1952 135.157 84.3187 133.902C85.125 132.999 86.5091 132.798 87.6783 133.123C88.8474 133.448 89.8392 134.206 90.7556 134.996C93.0375 136.958 95.064 139.21 97.448 141.049C99.8292 142.887 102.686 144.32 105.694 144.271C105.694 144.271 91.1265 146.97 84.2273 138.689H84.2246Z" fill="#FFE2CF"/>
<path d="M100.864 169.997C104.931 183.347 120.594 219.918 130.394 240.03C133.893 247.217 136.645 252.305 137.849 253.477C137.887 253.512 137.916 253.538 137.954 253.568C143.953 258.605 150.261 261.257 156.238 261.924C181.223 264.727 200.292 232.806 165.371 195.391C165.371 195.391 164.922 194.818 164.127 193.783C163.522 193.009 162.726 191.98 161.77 190.746C154.33 181.1 135.613 157.892 128.657 147.346C119.624 133.647 94.4299 148.867 100.87 170L100.864 169.997Z" fill="#FFE2CF"/>
<path d="M129.88 151.211C129.88 151.211 123.663 129.04 115.264 126.75C106.865 124.46 110.884 131.637 112.515 137.592C114.146 143.548 102.783 144.287 96.7652 142.718C89.702 140.877 83.1629 131.491 78.1584 133.01C73.8313 134.324 75.5621 138.762 75.5621 138.762C75.5621 138.762 71.1329 140.646 73.2722 146.752C73.8635 148.44 75.5057 149.854 76.1911 151.856C78.1584 157.594 83.386 162.158 87.0708 163.856C91.2635 165.786 100.778 168.044 100.778 168.044L129.88 151.214V151.211Z" fill="#FFE2CF"/>
<path d="M114.546 153.863C113.383 151.353 114.24 148.074 116.482 146.456C116.973 146.101 116.5 145.276 116.003 145.636C113.31 147.58 112.329 151.332 113.727 154.344C113.985 154.898 114.804 154.417 114.546 153.866V153.863Z" fill="#33296E"/>
<path d="M95.5639 155.74C92.7016 155.672 89.4549 154.64 87.431 152.568C86.5253 151.641 85.9259 150.466 85.0444 149.512C84.2972 148.706 83.4183 147.98 82.4266 147.496C80.9564 146.782 79.1826 146.585 77.7205 147.435C76.1724 148.335 75.5058 150.125 75.7182 151.853C75.7907 152.453 76.7422 152.461 76.6696 151.853C76.4976 150.453 76.9222 148.996 78.2016 148.254C79.6341 147.424 81.373 147.889 82.6819 148.73C83.7005 149.386 84.5552 150.294 85.2648 151.267C85.9233 152.17 86.493 153.06 87.3558 153.788C88.7803 154.987 90.5246 155.748 92.3172 156.199C93.3681 156.465 94.4754 156.661 95.5639 156.688C96.1767 156.702 96.1767 155.753 95.5639 155.737V155.74Z" fill="#33296E"/>
<path d="M98.4449 149.598C95.5422 149.87 92.3197 149.163 89.8444 147.641C87.5814 146.249 86.0413 143.922 84.3346 141.938C83.4235 140.879 82.5151 139.753 81.4266 138.869C79.8005 137.544 77.1424 137.197 75.3229 138.353C74.8068 138.681 75.2852 139.503 75.8013 139.173C77.3548 138.186 79.6258 138.56 80.9347 139.691C82.0528 140.659 83.0016 141.839 83.9584 142.957C85.6301 144.911 87.1406 147.093 89.3633 148.461C91.1076 149.534 93.1045 150.144 95.123 150.415C96.2115 150.563 97.343 150.649 98.4423 150.547C99.047 150.49 99.0524 149.539 98.4423 149.595L98.4449 149.598Z" fill="#33296E"/>
<path d="M101.364 143.016C97.623 143.282 94.2096 141.971 91.3473 139.611C88.888 137.584 86.6895 135.133 83.7035 133.862C83.1472 133.625 82.6634 134.442 83.2251 134.682C86.3697 136.02 88.6031 138.678 91.2478 140.74C94.1559 143.008 97.6579 144.228 101.364 143.965C101.972 143.922 101.974 142.97 101.364 143.013V143.016Z" fill="#33296E"/>
<path d="M283.179 110.584C283.179 110.584 327.687 113.272 347.82 137.641C354.609 151.603 301.437 269.237 301.437 269.237C301.437 269.237 193.878 271.379 174.731 266.311C183.716 220.459 200.004 147.687 206.454 132.478C212.904 117.268 202.549 116.379 202.549 116.379C202.549 116.379 237.107 109.987 244.033 110.103C250.959 110.218 283.179 110.581 283.179 110.581V110.584Z" fill="#4C6FFF"/>
<path d="M287.662 152.423C287.662 152.423 279.594 208.391 271.735 229.629C265.44 246.637 301.439 209.568 301.439 209.568L287.662 152.423Z" fill="#33296E"/>
<path d="M321.048 122.751C302.455 121.929 286.568 136.469 285.746 155.062L282.305 232.787C281.483 251.38 297.144 265.512 315.737 266.335C334.331 267.157 349.097 254.375 349.919 235.778L353.359 158.054C354.182 139.46 339.642 123.573 321.048 122.751Z" fill="#4C6FFF"/>
<path d="M295.355 214.5C295.355 214.5 225.502 239.522 211.873 241.882C197.214 244.419 193.672 257.355 212.604 263.394C219.178 265.493 230.305 269.237 244.431 269.689C272.991 270.603 307.388 271.474 328.669 264.848C360.778 254.853 348.901 201.454 295.358 214.5H295.355Z" fill="#FFE2CF"/>
<path d="M214.447 260.475C214.933 260.655 215.428 260.841 215.855 261.137C216.283 261.432 216.645 261.857 216.758 262.362C216.877 262.892 216.713 263.445 216.46 263.924C215.898 264.996 214.901 265.802 213.786 266.273C212.867 266.66 211.843 266.829 210.862 266.654C209.881 266.48 208.951 265.939 208.397 265.112C207.843 264.284 207.706 263.166 208.136 262.265L214.45 260.475H214.447Z" fill="#FFE2CF"/>
<path d="M230.305 248.037C230.305 248.037 218.6 238.415 213.585 236.198C208.572 233.98 196.945 232.284 188.885 237.603C180.825 242.922 179.631 245.841 178.669 262.359C178.537 264.625 180.766 264.499 182.01 263.781C183.389 262.988 187.536 258.245 187.536 258.245C187.536 258.245 188.103 265.458 196.419 261.44C199.711 266.501 206.328 264.902 206.328 264.902C206.328 264.902 210.303 272.07 216.917 258.747C219.32 253.909 229.219 261.908 230.302 248.031L230.305 248.037Z" fill="#FFE2CF"/>
<path d="M202.431 234.214C202.431 234.214 194.206 231.389 185.821 234.443C177.435 237.496 172.06 240.748 176.11 244.298C178.817 246.671 193.451 243.245 193.451 243.245L202.431 234.211V234.214Z" fill="#FFE2CF"/>
<path d="M195.806 240.227C193.151 242.148 190.385 243.925 189.06 247.072C187.587 250.569 187.539 254.538 187.063 258.253C186.985 258.857 187.937 258.852 188.015 258.253C188.466 254.721 188.523 250.972 189.853 247.623C191.062 244.583 193.75 242.882 196.285 241.046C196.776 240.691 196.301 239.866 195.806 240.227Z" fill="#33296E"/>
<path d="M204.199 244.035C202.788 245.19 201.463 246.462 200.272 247.843C199.275 249.002 198.429 250.206 197.891 251.644C196.735 254.742 196.73 258.126 195.961 261.319C195.819 261.913 196.735 262.169 196.878 261.572C197.62 258.489 197.657 255.245 198.689 252.227C199.195 250.749 200.049 249.534 201.071 248.367C202.232 247.045 203.508 245.822 204.868 244.707C205.341 244.32 204.667 243.65 204.196 244.035H204.199Z" fill="#33296E"/>
<path d="M212.695 248.072C211.51 249.069 210.532 250.316 209.634 251.568C208.744 252.813 207.992 254.108 207.452 255.541C206.358 258.444 205.984 261.572 205.694 264.641C205.637 265.249 206.586 265.246 206.645 264.641C206.922 261.714 207.293 258.745 208.306 255.968C208.814 254.579 209.545 253.329 210.403 252.125C211.268 250.907 212.222 249.706 213.37 248.741C213.837 248.346 213.163 247.677 212.698 248.069L212.695 248.072Z" fill="#33296E"/>
<path d="M225.453 258.93C222.892 259.954 219.973 259.847 217.514 258.581C216.971 258.301 216.49 259.121 217.036 259.4C219.704 260.777 222.911 260.965 225.706 259.847C226.268 259.624 226.023 258.702 225.453 258.93Z" fill="#33296E"/>
<path d="M210.649 266.439C210.238 266.515 209.921 266.431 209.521 266.359C209.115 266.286 208.712 266.192 208.338 266.02C207.591 265.673 206.986 265.125 206.58 264.405C206.282 263.873 205.459 264.351 205.761 264.883C206.25 265.751 207.008 266.458 207.919 266.867C208.378 267.074 208.843 267.192 209.335 267.286C209.577 267.332 209.816 267.388 210.063 267.412C210.346 267.442 210.625 267.407 210.905 267.353C211.157 267.307 211.3 267.001 211.235 266.767C211.163 266.501 210.905 266.388 210.652 266.437L210.649 266.439Z" fill="#33296E"/>
<path d="M218.713 255.511C217.646 256.723 216.576 257.944 215.659 259.277C214.729 260.629 214.063 262.123 213.273 263.556C212.977 264.09 213.797 264.571 214.092 264.034C214.858 262.644 215.504 261.193 216.396 259.876C217.285 258.562 218.336 257.371 219.382 256.183C219.785 255.726 219.116 255.052 218.71 255.511H218.713Z" fill="#33296E"/>
<path d="M205.841 263.999C203.057 265.289 199.756 264.652 197.614 262.475C197.184 262.039 196.512 262.711 196.942 263.147C199.404 265.646 203.148 266.286 206.322 264.818C206.876 264.563 206.395 263.743 205.844 263.999H205.841Z" fill="#33296E"/>
<path d="M196.295 260.989C194.561 261.664 192.79 262.403 190.925 261.747C189.366 261.199 188.342 259.685 187.998 258.124C187.866 257.527 186.95 257.78 187.081 258.377C187.482 260.193 188.688 261.857 190.441 262.572C192.529 263.424 194.577 262.669 196.55 261.903C197.114 261.682 196.87 260.763 196.297 260.986L196.295 260.989Z" fill="#33296E"/>
<path d="M187.323 256.215C186.477 257.704 185.619 259.188 184.748 260.661C183.8 262.26 182.695 264.407 180.513 263.717C180.265 263.639 180.029 263.539 179.784 263.456C179.704 263.429 179.618 263.413 179.537 263.381C179.639 263.421 179.456 263.303 179.513 263.359C179.338 263.19 179.241 262.937 179.161 262.599C178.9 261.513 178.983 260.322 179.059 259.217C179.279 256.03 179.902 252.856 180.628 249.749C180.953 248.359 181.308 246.972 181.733 245.61C181.972 244.841 182.179 243.989 182.622 243.336C182.63 243.325 182.69 243.245 182.636 243.315C182.534 243.444 182.983 242.968 182.797 243.156C183.071 242.879 183.345 242.605 183.622 242.331C184.2 241.758 184.783 241.191 185.385 240.643C186.589 239.549 187.869 238.53 189.285 237.721C191.726 236.329 194.491 235.8 197.147 234.969C197.73 234.787 197.48 233.87 196.894 234.053C194.4 234.832 191.803 235.348 189.463 236.547C186.761 237.926 184.547 240.057 182.423 242.183C181.692 242.917 181.375 243.672 181.042 244.653C180.593 245.983 180.233 247.346 179.897 248.709C179.069 252.084 178.381 255.541 178.118 259.013C178.024 260.255 177.951 261.569 178.225 262.795C178.317 263.198 178.459 263.623 178.741 263.934C179.021 264.246 179.381 264.321 179.76 264.458C180.496 264.727 181.241 264.931 182.028 264.765C183.265 264.501 184.149 263.459 184.789 262.437C185.963 260.561 187.049 258.623 188.143 256.696C188.447 256.164 187.624 255.683 187.323 256.218V256.215Z" fill="#33296E"/>
<path d="M180.465 244.925C178.984 244.919 177.164 244.922 176.127 243.67C175.143 242.482 175.756 240.826 176.696 239.824C177.591 238.869 178.766 238.165 179.887 237.509C181.123 236.786 182.419 236.123 183.797 235.717C184.383 235.545 184.133 234.626 183.545 234.8C181.964 235.265 180.467 236.045 179.062 236.894C177.694 237.719 176.202 238.644 175.342 240.028C174.485 241.404 174.388 243.223 175.554 244.454C176.82 245.788 178.75 245.868 180.465 245.876C181.077 245.879 181.077 244.927 180.465 244.925Z" fill="#33296E"/>
<path d="M210.776 267.372C212.872 267.122 215.175 266.767 216.511 264.94C217.557 263.513 217.409 261.153 215.67 260.314C215.122 260.048 214.638 260.868 215.192 261.134C216.533 261.782 216.46 263.572 215.595 264.58C214.401 265.967 212.488 266.217 210.778 266.421C210.523 266.45 210.303 266.617 210.303 266.897C210.303 267.13 210.52 267.402 210.778 267.372H210.776Z" fill="#33296E"/>
<path d="M184.461 269.689H242.746C244.057 269.689 245.119 268.627 245.119 267.316C245.119 266.004 244.057 264.942 242.746 264.942H185.482L184.458 269.689H184.461Z" fill="#33296E"/>
<path d="M67.9399 269.689L12.4341 186.285L14.9578 183.199H131.479L189.038 269.689H67.9399Z" fill="#33296E"/>
<path d="M67.9399 269.689H184.461L128.956 186.285H12.4341L67.9399 269.689Z" fill="#33296E"/>
<path d="M237.145 90.1982C237.145 90.1982 237.811 115.309 237.843 117.209V117.322C250.588 142.352 283.179 110.584 283.179 110.584L267.074 85.7151L265.857 83.8391L264.465 82.5947L237.145 90.1982Z" fill="#FFE2CF"/>
<path d="M237.145 90.1977C237.145 90.1977 237.811 115.309 237.843 117.209C243.584 115.142 250.58 112.852 255.101 108.751C261.608 102.849 264.398 95.8794 264.9 85.6958L265.857 83.8359L264.465 82.5916L237.145 90.195V90.1977Z" fill="#33296E"/>
<path d="M261.653 87.1713C271.072 77.7522 271.072 62.4807 261.653 53.0616C252.234 43.6425 236.963 43.6425 227.544 53.0616C218.124 62.4807 218.124 77.7522 227.544 87.1713C236.963 96.5904 252.234 96.5904 261.653 87.1713Z" fill="#FFE2CF"/>
<path d="M245.119 76.273L268.354 74.2976L264.505 86.3438L263.885 90.1038C262.576 98.0217 256.332 104.357 248.374 105.375C248.119 105.407 247.861 105.434 247.6 105.459C240.341 106.077 233.853 106.722 229.942 95.9173L228.055 92.4206L221.884 78.2485L245.119 76.273Z" fill="#FFE2CF"/>
<path d="M259.119 78.2056C259.119 78.2056 251.935 74.2306 250.868 58.333C243.909 52.8179 231.379 65.1086 221.884 61.9775C220.562 72.1557 221.588 77.5714 223.158 81.1755C216.767 70.8952 210.494 52.24 219.419 51.0709C225.117 37.1675 243.423 34.4906 253.582 40.4949C265.526 33.0312 279.486 64.1787 266.572 85.293C263.981 85.6021 259.119 78.2056 259.119 78.2056Z" fill="#33296E"/>
<path d="M258.754 78.2838C258.738 76.8351 258.832 75.33 259.501 73.9916C260.17 72.6558 261.541 71.5296 263.011 71.5431C264.662 71.5592 265.874 72.9299 266.602 74.341C268.024 77.1039 268.354 80.4474 267.521 83.5758C266.685 86.7043 264.688 89.5935 262.006 91.5528L258.754 78.2838Z" fill="#FFE2CF"/>
<path d="M263.019 73.4566C261.42 74.4241 260.57 76.2034 260.452 78.031C260.31 80.2376 261.339 82.3071 262.309 84.2207C262.586 84.7663 263.406 84.2852 263.129 83.7423C262.274 82.0571 261.355 80.2564 261.39 78.3186C261.417 76.7382 262.111 75.1203 263.497 74.2817C264.019 73.9646 263.543 73.1421 263.019 73.462V73.4566Z" fill="#33296E"/>
<path d="M264.5 80.9739C265.112 79.9607 265.215 78.6706 264.68 77.6036C264.18 76.6065 263.167 75.999 262.081 75.8647C261.825 75.8324 261.605 76.1066 261.605 76.3404C261.605 76.6226 261.825 76.7838 262.081 76.8161C262.839 76.9102 263.519 77.4101 263.857 78.0847C264.239 78.848 264.107 79.7833 263.677 80.4955C263.36 81.0196 264.182 81.498 264.497 80.9739H264.5Z" fill="#33296E"/>
<path d="M253.395 37.9552C253.007 37.0333 253.091 35.9341 253.712 35.1277C254.284 34.3806 255.3 33.9398 256.241 34.0688C256.496 34.1037 256.751 34.007 256.824 33.7382C256.886 33.5178 256.749 33.1872 256.493 33.1523C255.201 32.9776 253.849 33.4399 253.024 34.4773C252.198 35.5121 251.965 36.9796 252.481 38.2105C252.58 38.447 252.795 38.6163 253.067 38.5411C253.29 38.4793 253.499 38.1944 253.397 37.9552H253.395Z" fill="#33296E"/>
<path d="M264.43 90.1711C269.183 90.1711 273.036 84.6009 273.036 77.7298C273.036 70.8587 269.183 65.2886 264.43 65.2886C259.677 65.2886 255.824 70.8587 255.824 77.7298C255.824 84.6009 259.677 90.1711 264.43 90.1711Z" fill="#33296E"/>
<path d="M234.933 80.0846C235.019 82.9039 234.882 85.726 234.522 88.5239C234.497 88.7066 234.686 88.9566 234.871 88.9808L237.578 89.357C238.177 89.4404 238.435 88.5239 237.83 88.4405L235.124 88.0643C235.239 88.2175 235.358 88.3707 235.473 88.5239C235.831 85.726 235.968 82.9039 235.884 80.0846C235.865 79.4745 234.914 79.4718 234.933 80.0846Z" fill="#33296E"/>
<path d="M241.808 79.9284C241.592 80.732 242.068 81.5598 242.875 81.7775C243.678 81.9925 244.506 81.5168 244.724 80.7105C244.939 79.9069 244.463 79.0791 243.657 78.8614C242.85 78.6437 242.025 79.1221 241.808 79.9284Z" fill="#33296E"/>
<path d="M228.095 81.6943C227.88 82.4979 228.356 83.3257 229.162 83.5434C229.966 83.7584 230.794 83.2827 231.011 82.4764C231.229 81.6701 230.751 80.845 229.944 80.6273C229.138 80.4096 228.313 80.888 228.095 81.6943Z" fill="#33296E"/>
<path d="M247.476 74.6605C244.509 73.8085 241.313 74.1095 238.548 75.4722C237.999 75.7436 238.48 76.5633 239.026 76.2919C241.563 75.0421 244.509 74.7975 247.223 75.577C247.812 75.7463 248.065 74.8298 247.476 74.6605Z" fill="#33296E"/>
<path d="M230.88 76.5366C228.555 76.1711 226.198 76.8134 224.384 78.3132C224.185 78.4771 224.215 78.8158 224.384 78.9851C224.58 79.1813 224.857 79.149 225.056 78.9851C226.582 77.7219 228.668 77.1467 230.627 77.4531C230.88 77.4934 231.138 77.3886 231.211 77.1225C231.272 76.8968 231.133 76.5769 230.88 76.5366Z" fill="#33296E"/>
<path d="M240.711 91.585C242.283 90.6927 243.856 89.7977 245.428 88.9054C245.194 88.8114 244.963 88.7173 244.729 88.6205C245.307 90.2036 244.78 92.0151 243.458 93.0579C243.256 93.2165 243.291 93.5632 243.458 93.7298C243.657 93.9287 243.928 93.8884 244.13 93.7298C245.689 92.5015 246.323 90.2331 245.646 88.3679C245.541 88.0803 245.232 87.9217 244.947 88.083C243.375 88.9753 241.802 89.8703 240.23 90.7626C239.698 91.0636 240.176 91.8861 240.709 91.5824L240.711 91.585Z" fill="#33296E"/>
<path d="M250.868 96.5786C257.81 95.8798 263.86 90.2168 264.887 83.288C264.975 82.6886 264.059 82.4306 263.97 83.0354C263.008 89.5207 257.418 94.9686 250.868 95.6298C250.266 95.6916 250.258 96.6404 250.868 96.5812V96.5786Z" fill="#33296E"/>
<path d="M249.269 99.7206C251.678 99.7206 253.631 98.1021 253.631 96.1056C253.631 94.1092 251.678 92.4907 249.269 92.4907C246.86 92.4907 244.907 94.1092 244.907 96.1056C244.907 98.1021 246.86 99.7206 249.269 99.7206Z" fill="#33296E"/>
<path d="M279.164 99.7178C279.164 99.7178 268.913 115.408 247.712 126.312C253.018 137.576 255.824 141.156 255.824 141.156C255.824 141.156 278.285 132.653 291.083 111.474C283.182 104.109 279.166 99.7178 279.166 99.7178H279.164Z" fill="white"/>
<path d="M247.713 126.315C247.713 126.315 238.868 120.026 237.704 107.49L231.831 111.439C231.831 111.439 228.856 122.068 234.997 138.904C245.079 130.309 247.713 126.315 247.713 126.315Z" fill="white"/>
<path d="M271.735 181.025H253.031L254.574 174.363H273.278L271.735 181.025Z" fill="white"/>
</g>
<g clip-path="url(#clip2_35_39783)">
<path d="M108.304 58.2622C110.297 62.3312 112.289 66.4024 114.282 70.4714C114.566 71.0521 114.85 71.6328 115.133 72.2112C115.395 72.7479 116.198 72.6863 116.477 72.2112C118.353 69.0132 120.227 65.8174 122.103 62.6193C125.09 57.5297 128.075 52.4402 131.062 47.3506C131.741 46.1915 132.423 45.0302 133.103 43.871C133.611 43.0066 132.267 42.2214 131.759 43.0858C129.883 46.2838 128.009 49.4797 126.133 52.6777C123.146 57.7673 120.161 62.8569 117.174 67.9464C116.495 69.1056 115.813 70.2669 115.133 71.426H116.477C114.484 67.357 112.492 63.2858 110.499 59.2167C110.215 58.6361 109.931 58.0554 109.648 57.477C109.208 56.5774 107.866 57.3648 108.304 58.2622Z" fill="#FFBD02"/>
<path d="M82.8894 28.3385H150.393C152.995 28.3385 155.806 28.0724 158.245 29.1281C161.842 30.6831 164.195 34.2815 164.217 38.1899C164.228 39.9055 164.217 41.6211 164.217 43.3345V55.3172C164.217 55.8407 164.114 56.461 164.448 56.8964C165.196 57.8664 166.098 58.7506 166.911 59.6634C168.686 61.6561 170.459 63.6488 172.234 65.6415C175.566 69.3828 178.899 73.1263 182.229 76.8676C182.424 77.0876 182.618 77.3053 182.814 77.5253C183.067 77.092 183.317 76.6587 183.57 76.2254C178.208 75.0751 172.846 73.9248 167.483 72.7744C166.722 72.6117 165.959 72.4467 165.198 72.2839C164.71 72.1784 164.213 72.5061 164.213 73.034V76.7753C164.213 78.6602 163.817 80.4594 162.851 82.0936C161.061 85.1245 157.781 86.9478 154.275 86.9544C151.594 86.9588 148.913 86.9544 146.23 86.9544H83.1643C80.2918 86.9544 77.6019 85.8767 75.6399 83.7498C74.1333 82.1156 73.2007 79.9601 73.0709 77.7408C73.0468 77.3097 73.0533 76.8786 73.0533 76.4475V38.5155C73.0533 35.3416 74.3422 32.3635 76.8848 30.3906C78.6026 29.0577 80.7229 28.3539 82.8916 28.3363C83.8923 28.3297 83.8945 26.7725 82.8916 26.7813C78.0923 26.8165 73.7726 29.8825 72.1472 34.3981C71.4917 36.217 71.4983 38.0668 71.4983 39.9583V74.2789C71.4983 75.5282 71.4301 76.8061 71.5379 78.051C71.9536 82.7886 75.354 86.9038 79.9663 88.1311C81.33 88.494 82.6936 88.5139 84.0837 88.5139H153.664C155.769 88.5139 157.803 88.1883 159.693 87.192C161.721 86.123 163.427 84.4052 164.483 82.3685C165.403 80.5979 165.772 78.6932 165.772 76.7115V73.0362C165.444 73.2869 165.117 73.5354 164.787 73.7862C170.149 74.9365 175.511 76.0868 180.874 77.2372C181.635 77.3999 182.398 77.5649 183.159 77.7276C183.929 77.8926 184.439 77.0172 183.915 76.4277C181.844 74.1007 179.774 71.7759 177.702 69.4488C174.403 65.7449 171.106 62.0388 167.807 58.3349C167.052 57.4881 166.298 56.6413 165.546 55.7945C165.622 55.9771 165.697 56.1618 165.774 56.3444V40.1937C165.774 38.7838 165.825 37.3761 165.559 35.9839C164.536 30.6106 159.636 26.7901 154.234 26.7813C152.63 26.7813 151.025 26.7813 149.421 26.7813H82.8894C81.8886 26.7813 81.8864 28.3363 82.8894 28.3363V28.3385Z" fill="#FFBD02"/>
</g>
</g>
<defs>
<clipPath id="clip0_35_39783">
<rect width="423" height="286" rx="4" fill="white"/>
</clipPath>
<clipPath id="clip1_35_39783">
<rect width="416.877" height="237.198" fill="white" transform="translate(12.4341 33.1147)"/>
</clipPath>
<clipPath id="clip2_35_39783">
<rect width="112.655" height="61.7326" fill="white" transform="translate(71.4761 26.7815)"/>
</clipPath>
</defs>
</svg>
